<svg width="25" height="25" viewBox="0 0 25 25" fill="none" xmlns="http://www.w3.org/2000/svg">
<path d="M4.39793 20.6021C4.88113 21.086 5.45519 21.4696 6.08711 21.731C6.71904 21.9923 7.39638 22.1262 8.08022 22.125C8.76421 22.1262 9.4417 21.9923 10.0738 21.7309C10.7059 21.4696 11.2801 21.086 11.7636 20.6021L14.7094 17.6552L13.2365 16.1823L10.2906 19.1292C9.70363 19.7136 8.90904 20.0416 8.08074 20.0416C7.25244 20.0416 6.45785 19.7136 5.87084 19.1292C5.28595 18.5424 4.95752 17.7478 4.95752 16.9193C4.95752 16.0908 5.28595 15.2961 5.87084 14.7094L8.81772 11.7636L7.3448 10.2906L4.39793 13.2365C3.42273 14.214 2.87506 15.5385 2.87506 16.9193C2.87506 18.3001 3.42273 19.6245 4.39793 20.6021ZM20.6021 11.7636C21.5768 10.7857 22.1241 9.46138 22.1241 8.08074C22.1241 6.7001 21.5768 5.37576 20.6021 4.39793C19.6245 3.42273 18.3001 2.87506 16.9193 2.87506C15.5385 2.87506 14.214 3.42273 13.2365 4.39793L10.2906 7.3448L11.7636 8.81772L14.7094 5.87084C15.2964 5.28646 16.091 4.95837 16.9193 4.95837C17.7476 4.95837 18.5422 5.28646 19.1292 5.87084C19.7141 6.45759 20.0425 7.25227 20.0425 8.08074C20.0425 8.90921 19.7141 9.70389 19.1292 10.2906L16.1823 13.2365L17.6552 14.7094L20.6021 11.7636Z" fill="#121212"/>
<path d="M8.81667 17.6563L7.34271 16.1833L16.1833 7.34375L17.6563 8.81771L8.81667 17.6563Z" fill="#121212"/>
</svg>
