<svg width="48" height="48" viewBox="0 0 48 48" fill="none" xmlns="http://www.w3.org/2000/svg">
<circle cx="24" cy="24" r="24" fill="#D8C8ED"/>
<path d="M21.9578 31.5668C22.4577 31.461 25.5039 31.461 26.0038 31.5668C26.4312 31.6655 26.8933 31.8961 26.8933 32.3997C26.8685 32.8791 26.5872 33.3041 26.1986 33.5741C25.6947 33.9668 25.1034 34.2156 24.4852 34.3053C24.1433 34.3496 23.8074 34.3506 23.4774 34.3053C22.8582 34.2156 22.2669 33.9668 21.764 33.573C21.3744 33.3041 21.0931 32.8791 21.0683 32.3997C21.0683 31.8961 21.5304 31.6655 21.9578 31.5668ZM24.0398 14.3389C26.12 14.3389 28.2449 15.3259 29.5071 16.9635C30.326 18.018 30.7017 19.0715 30.7017 20.7092V21.1352C30.7017 22.3911 31.0337 23.1314 31.7641 23.9845C32.3177 24.6129 32.4946 25.4197 32.4946 26.2949C32.4946 27.1691 32.2074 27.999 31.632 28.6728C30.8786 29.4805 29.8162 29.9962 28.7319 30.0858C27.1606 30.2198 25.5883 30.3326 23.9951 30.3326C22.401 30.3326 20.8297 30.2651 19.2584 30.0858C18.1731 29.9962 17.1106 29.4805 16.3583 28.6728C15.7828 27.999 15.4946 27.1691 15.4946 26.2949C15.4946 25.4197 15.6725 24.6129 16.2251 23.9845C16.9785 23.1314 17.2885 22.3911 17.2885 21.1352V20.7092C17.2885 19.0272 17.708 17.9274 18.5716 16.8507C19.8557 15.2806 21.914 14.3389 23.9504 14.3389H24.0398Z" fill="#7C48C3"/>
</svg>
