<svg width="32" height="32" viewBox="0 0 32 32" fill="none" xmlns="http://www.w3.org/2000/svg">
<circle cx="16" cy="16" r="15.6" fill="white" stroke="#DBDBDB" stroke-width="0.8"/>
<path fill-rule="evenodd" clip-rule="evenodd" d="M14.8828 21.4041C15.2282 21.7887 15.6715 22.0001 16.1315 22.0001H16.1322C16.5942 22.0001 17.0395 21.7887 17.3855 21.4034C17.5708 21.1987 17.8868 21.1821 18.0915 21.3667C18.2968 21.5514 18.3135 21.8681 18.1288 22.0727C17.5902 22.6707 16.8815 23.0001 16.1322 23.0001H16.1308C15.3835 22.9994 14.6762 22.6701 14.1395 22.0721C13.9548 21.8674 13.9715 21.5507 14.1768 21.3667C14.3822 21.1814 14.6982 21.1981 14.8828 21.4041ZM16.1647 8.66675C19.128 8.66675 21.1187 10.9747 21.1187 13.1301C21.1187 14.2387 21.4007 14.7087 21.7 15.2074C21.996 15.6994 22.3314 16.2581 22.3314 17.3141C22.0987 20.0121 19.282 20.2321 16.1647 20.2321C13.0474 20.2321 10.23 20.0121 10 17.3567C9.99802 16.2581 10.3334 15.6994 10.6294 15.2074L10.7338 15.0315C10.9911 14.5893 11.2107 14.1083 11.2107 13.1301C11.2107 10.9747 13.2014 8.66675 16.1647 8.66675ZM16.1647 9.66675C13.8347 9.66675 12.2107 11.4921 12.2107 13.1301C12.2107 14.5161 11.826 15.1567 11.486 15.7221C11.2134 16.1761 10.998 16.5347 10.998 17.3141C11.1094 18.5714 11.9394 19.2321 16.1647 19.2321C20.3667 19.2321 21.2227 18.5421 21.3334 17.2707C21.3314 16.5347 21.116 16.1761 20.8434 15.7221C20.5034 15.1567 20.1187 14.5161 20.1187 13.1301C20.1187 11.4921 18.4947 9.66675 16.1647 9.66675Z" fill="#333333"/>
</svg>
