<svg width="32" height="32" viewBox="0 0 32 32" fill="none" xmlns="http://www.w3.org/2000/svg">
<path d="M22.6667 16.3333C19.1747 16.3333 16.3334 19.1747 16.3334 22.6667C16.3334 26.1587 19.1747 29 22.6667 29C26.1587 29 29 26.1587 29 22.6667C29 19.1747 26.1587 16.3333 22.6667 16.3333ZM18.3334 22.6667C18.3348 21.5178 18.7918 20.4164 19.6041 19.6041C20.4165 18.7917 21.5179 18.3347 22.6667 18.3333C23.4987 18.3333 24.2694 18.58 24.9307 18.9893L18.9894 24.9307C18.5639 24.2519 18.3367 23.4677 18.3334 22.6667ZM22.6667 27C21.8655 26.9973 21.0812 26.7701 20.4027 26.344L26.344 20.4027C26.752 21.064 27 21.8347 27 22.6667C26.9986 23.8155 26.5416 24.9169 25.7293 25.7292C24.9169 26.5416 23.8155 26.9986 22.6667 27ZM22.3334 9.33333C22.3334 5.84133 19.492 3 16 3C12.508 3 9.66671 5.84133 9.66671 9.33333C9.66671 12.8253 12.508 15.6667 16 15.6667C19.492 15.6667 22.3334 12.8253 22.3334 9.33333ZM16 13.6667C13.6107 13.6667 11.6667 11.7227 11.6667 9.33333C11.6667 6.944 13.6107 5 16 5C18.3894 5 20.3334 6.944 20.3334 9.33333C20.3334 11.7227 18.3894 13.6667 16 13.6667ZM6.33337 25.3333C6.33337 26.252 7.08137 27 8.00004 27H14.6267C14.8919 27 15.1463 27.1054 15.3338 27.2929C15.5214 27.4804 15.6267 27.7348 15.6267 28C15.6267 28.2652 15.5214 28.5196 15.3338 28.7071C15.1463 28.8946 14.8919 29 14.6267 29H8.00004C7.0278 28.9993 6.09558 28.6128 5.4081 27.9253C4.72062 27.2378 4.33408 26.3056 4.33337 25.3333C4.33337 21.1053 7.77337 17.6667 12 17.6667H14.6667C14.9319 17.6667 15.1863 17.772 15.3738 17.9596C15.5613 18.1471 15.6667 18.4015 15.6667 18.6667C15.6667 18.9319 15.5613 19.1862 15.3738 19.3738C15.1863 19.5613 14.9319 19.6667 14.6667 19.6667H12C10.4977 19.6684 9.05737 20.266 7.99505 21.3283C6.93273 22.3907 6.33514 23.831 6.33337 25.3333Z" fill="#666666"/>
</svg>
