<svg width="25" height="25" viewBox="0 0 25 25" fill="none" xmlns="http://www.w3.org/2000/svg">
<path d="M15.9557 3.49445C16.5637 3.73643 16.9936 4.1726 17.379 4.81204L17.5059 5.03273L17.977 5.93601L17.9925 5.96124L18.0066 5.98319L18.0466 6.03789C18.2612 6.27174 18.6204 6.41302 18.8575 6.41302C21.0291 6.41302 22.8028 8.1185 22.9115 10.2625L22.9168 10.4714V16.5078C22.9168 19.2911 20.7187 21.5625 17.9643 21.6801L17.7397 21.6849H7.26058C4.47656 21.6849 2.20586 19.4871 2.08828 16.7324L2.0835 16.5078V10.4714C2.0835 8.23031 3.90118 6.41302 6.14287 6.41302C6.3791 6.41302 6.73879 6.27154 6.95375 6.03789L6.96115 6.02916L6.97042 6.01702L7.02399 5.93485L7.49372 5.03302C7.91242 4.27206 8.36791 3.76336 9.04379 3.49435C10.2823 3.00187 14.7182 3.00187 15.9557 3.49445ZM9.62136 4.94618C9.39075 5.03797 9.18196 5.25043 8.95914 5.61876L8.86268 5.78625L8.46179 6.56136L8.36311 6.73993C8.28074 6.87694 8.19835 6.99259 8.10428 7.0951C7.62467 7.61641 6.93607 7.9175 6.32393 7.96794L6.14287 7.97552L5.97194 7.98128C4.7293 8.0653 3.7358 9.05857 3.65176 10.3005L3.646 10.4714V16.5078C3.646 18.4373 5.15823 20.0141 7.06226 20.117L7.26058 20.1224H17.7397C19.6688 20.1224 21.246 18.6096 21.349 16.7061L21.3543 16.5078V10.4714C21.3543 9.15075 20.3275 8.06912 19.0284 7.98128L18.8575 7.97552L18.6761 7.96794C18.063 7.91749 17.3744 7.61632 16.8954 7.0944C16.8026 6.99326 16.7206 6.87842 16.6388 6.74257L16.6191 6.7089L16.5956 6.66707L16.4747 6.44025L16.1373 5.78654C15.9095 5.37289 15.7008 5.12008 15.4756 4.99303L15.3779 4.94618L15.2536 4.90486C14.1816 4.60186 10.4527 4.61563 9.62136 4.94618ZM12.4999 9.5825C14.7605 9.5825 16.5926 11.4146 16.5926 13.6752C16.5926 15.9358 14.7605 17.7679 12.4999 17.7679C10.2392 17.7679 8.40714 15.9358 8.40714 13.6752C8.40714 11.4146 10.2392 9.5825 12.4999 9.5825ZM12.4999 11.145C11.1022 11.145 9.96964 12.2775 9.96964 13.6752C9.96964 15.0729 11.1022 16.2054 12.4999 16.2054C13.8975 16.2054 15.0301 15.0729 15.0301 13.6752C15.0301 12.2775 13.8975 11.145 12.4999 11.145ZM18.2338 8.85437C18.8091 8.85437 19.2755 9.32074 19.2755 9.89604C19.2755 10.4302 18.8734 10.8705 18.3553 10.9307L18.2338 10.9377C17.6491 10.9377 17.1828 10.4713 17.1828 9.89604C17.1828 9.36184 17.5849 8.92155 18.103 8.86138L18.2338 8.85437Z" fill="#121212"/>
</svg>
