<svg width="32" height="32" viewBox="0 0 32 32" fill="none" xmlns="http://www.w3.org/2000/svg">
<ellipse cx="16" cy="16.0734" rx="16" ry="15.9266" fill="#7C48C3"/>
<path d="M17.6168 8.52696C18.3928 8.53492 19.0248 8.93264 19.3928 9.64854C19.4878 9.83746 19.6203 10.1134 19.7591 10.4045L19.9266 10.7564L20.0088 10.9292L20.0888 11.1042C20.1208 11.1599 20.1768 11.1997 20.2488 11.1997C22.1688 11.1997 23.7368 12.7587 23.7368 14.6678V19.3928C23.7368 21.3018 22.1688 22.8609 20.2488 22.8609H11.2248C9.29682 22.8609 7.73682 21.3018 7.73682 19.3928V14.6678C7.73682 12.7587 9.29682 11.1997 11.2248 11.1997C11.2888 11.1997 11.3528 11.1678 11.3768 11.1042L11.4248 11.0088C11.6488 10.5394 11.9208 9.96672 12.0808 9.64854C12.4488 8.93264 13.0728 8.53492 13.8488 8.52696H17.6168ZM15.7368 13.6258C14.8968 13.6258 14.1048 13.9519 13.5048 14.5485C12.9128 15.1451 12.5848 15.9246 12.5928 16.7519C12.5928 17.5871 12.9208 18.3666 13.5128 18.9632C14.1128 19.5519 14.8968 19.878 15.7368 19.878C16.6008 19.878 17.3848 19.528 17.9528 18.9632C18.5208 18.3985 18.8728 17.6189 18.8808 16.7519C18.8808 15.9246 18.5528 15.1371 17.9608 14.5405C17.3688 13.9519 16.5768 13.6258 15.7368 13.6258ZM15.7368 14.8189C16.2568 14.8189 16.7448 15.0178 17.1128 15.3837C17.4808 15.7496 17.6808 16.2348 17.6808 16.7519C17.6728 17.8178 16.8088 18.6848 15.7368 18.6848C15.2168 18.6848 14.7288 18.486 14.3608 18.1201C13.9928 17.7541 13.7928 17.2689 13.7928 16.7519V16.7439C13.7848 16.2428 13.9848 15.7576 14.3528 15.3917C14.7288 15.0178 15.2168 14.8189 15.7368 14.8189ZM20.2248 13.4349C19.8248 13.4349 19.5048 13.761 19.5048 14.1587C19.5048 14.5565 19.8248 14.8746 20.2248 14.8746C20.6248 14.8746 20.9528 14.5565 20.9528 14.1587C20.9528 13.761 20.6248 13.4349 20.2248 13.4349Z" fill="white"/>
</svg>
