<svg width="51" height="51" viewBox="0 0 51 51" fill="none" xmlns="http://www.w3.org/2000/svg">
<path d="M32.411 7.48865C33.6269 7.97261 34.4867 8.84495 35.2574 10.1238L35.5114 10.5652L36.4535 12.3718L36.4845 12.4222L36.5127 12.4661L36.5927 12.5755C37.0219 13.0432 37.7403 13.3258 38.2144 13.3258C42.5577 13.3258 46.1051 16.7368 46.3226 21.0248L46.3332 21.4425V33.5154C46.3332 39.082 41.937 43.6247 36.428 43.86L35.979 43.8695H15.0207C9.45263 43.8695 4.91123 39.474 4.67607 33.9645L4.6665 33.5154V21.4425C4.6665 16.9604 8.30187 13.3258 12.7853 13.3258C13.2577 13.3258 13.9771 13.0428 14.407 12.5755L14.4218 12.5581L14.4404 12.5338L14.5475 12.3694L15.487 10.5658C16.3244 9.04387 17.2353 8.02648 18.5871 7.48845C21.0642 6.50349 29.9359 6.50349 32.411 7.48865ZM19.7422 10.3921C19.281 10.5757 18.8634 11.0006 18.4178 11.7373L18.2249 12.0723L17.4231 13.6225L17.2257 13.9796C17.061 14.2536 16.8962 14.4849 16.7081 14.6899C15.7489 15.7326 14.3716 16.3348 13.1474 16.4356L12.7853 16.4508L12.4434 16.4623C9.95812 16.6304 7.97111 18.6169 7.80303 21.1008L7.7915 21.4425V33.5154C7.7915 37.3743 10.816 40.5279 14.624 40.7338L15.0207 40.7445H35.979C39.8372 40.7445 42.9915 37.7189 43.1975 33.9119L43.2082 33.5154V21.4425C43.2082 18.8012 41.1545 16.638 38.5563 16.4623L38.2144 16.4508L37.8517 16.4356C36.6256 16.3347 35.2483 15.7324 34.2903 14.6886C34.1047 14.4863 33.9408 14.2566 33.777 13.9849L33.7377 13.9175L33.6908 13.8339L33.4489 13.3803L32.7741 12.0728C32.3185 11.2455 31.9012 10.7399 31.4507 10.4858L31.2554 10.3921L31.0067 10.3095C28.8627 9.70347 21.4049 9.73101 19.7422 10.3921ZM25.4992 19.6648C30.0205 19.6648 33.6846 23.3289 33.6846 27.8502C33.6846 32.3715 30.0205 36.0356 25.4992 36.0356C20.9779 36.0356 17.3138 32.3715 17.3138 27.8502C17.3138 23.3289 20.9779 19.6648 25.4992 19.6648ZM25.4992 22.7898C22.7038 22.7898 20.4388 25.0548 20.4388 27.8502C20.4388 30.6456 22.7038 32.9106 25.4992 32.9106C28.2946 32.9106 30.5596 30.6456 30.5596 27.8502C30.5596 25.0548 28.2946 22.7898 25.4992 22.7898ZM36.9671 18.2085C38.1177 18.2085 39.0505 19.1412 39.0505 20.2918C39.0505 21.3602 38.2462 22.2408 37.2101 22.3612L36.9671 22.3752C35.7978 22.3752 34.865 21.4424 34.865 20.2918C34.865 19.2234 35.6693 18.3429 36.7054 18.2225L36.9671 18.2085Z" fill="#7C48C3"/>
</svg>
