<svg width="52" height="52" viewBox="0 0 52 52" fill="none" xmlns="http://www.w3.org/2000/svg">
<g filter="url(#filter0_d_113_4328)">
<g clip-path="url(#clip0_113_4328)">
<rect x="2.5" y="2.5" width="47" height="47" rx="19.5" fill="#F5F5F5" stroke="#7C48C3"/>
<path d="M30.423 13.4729C31.2012 13.7826 31.7514 14.3409 32.2447 15.1594L32.4072 15.4419L33.0102 16.5981L33.03 16.6304L33.048 16.6585L33.0992 16.7285C33.374 17.0278 33.8337 17.2087 34.1372 17.2087C36.9169 17.2087 39.1872 19.3917 39.3264 22.1361L39.3332 22.4033V30.13C39.3332 33.6927 36.5196 36.6 32.9939 36.7505L32.7065 36.7567H19.2932C15.7296 36.7567 12.8231 33.9435 12.6726 30.4174L12.6665 30.13V22.4033C12.6665 19.5348 14.9931 17.2087 17.8625 17.2087C18.1649 17.2087 18.6253 17.0276 18.9004 16.7285L18.9099 16.7173L18.9218 16.7018L18.9903 16.5966L19.5916 15.4423C20.1275 14.4682 20.7105 13.8171 21.5757 13.4728C23.161 12.8424 28.8389 12.8424 30.423 13.4729ZM22.315 15.3311C22.0198 15.4486 21.7525 15.7206 21.4673 16.192L21.3439 16.4064L20.8307 17.3985L20.7044 17.6271C20.599 17.8025 20.4935 17.9505 20.3731 18.0817C19.7592 18.749 18.8778 19.1344 18.0943 19.199L17.8625 19.2087L17.6437 19.216C16.0531 19.3236 14.7815 20.595 14.6739 22.1847L14.6665 22.4033V30.13C14.6665 32.5997 16.6022 34.618 19.0393 34.7498L19.2932 34.7567H32.7065C35.1757 34.7567 37.1945 32.8202 37.3263 30.3838L37.3332 30.13V22.4033C37.3332 20.713 36.0188 19.3285 34.356 19.216L34.1372 19.2087L33.905 19.199C33.1203 19.1344 32.2389 18.7489 31.6258 18.0808C31.5069 17.9514 31.402 17.8044 31.2972 17.6305L31.272 17.5874L31.242 17.5339L31.0872 17.2435L30.6554 16.4068C30.3638 15.8773 30.0967 15.5537 29.8084 15.3911L29.6834 15.3311L29.5243 15.2782C28.1521 14.8904 23.3791 14.908 22.315 15.3311ZM25.9994 21.2656C28.8931 21.2656 31.2381 23.6107 31.2381 26.5043C31.2381 29.3979 28.8931 31.7429 25.9994 31.7429C23.1058 31.7429 20.7608 29.3979 20.7608 26.5043C20.7608 23.6107 23.1058 21.2656 25.9994 21.2656ZM25.9994 23.2656C24.2104 23.2656 22.7608 24.7152 22.7608 26.5043C22.7608 28.2933 24.2104 29.7429 25.9994 29.7429C27.7885 29.7429 29.2381 28.2933 29.2381 26.5043C29.2381 24.7152 27.7885 23.2656 25.9994 23.2656ZM33.3389 20.3336C34.0753 20.3336 34.6722 20.9306 34.6722 21.6669C34.6722 22.3507 34.1575 22.9143 33.4944 22.9913L33.3389 23.0003C32.5905 23.0003 31.9936 22.4033 31.9936 21.6669C31.9936 20.9832 32.5083 20.4196 33.1714 20.3426L33.3389 20.3336Z" fill="#7C48C3"/>
</g>
</g>
<defs>
<filter id="filter0_d_113_4328" x="0" y="0" width="52" height="52" filterUnits="userSpaceOnUse" color-interpolation-filters="sRGB">
<feFlood flood-opacity="0" result="BackgroundImageFix"/>
<feColorMatrix in="SourceAlpha" type="matrix" values="0 0 0 0 0 0 0 0 0 0 0 0 0 0 0 0 0 0 127 0" result="hardAlpha"/>
<feOffset/>
<feGaussianBlur stdDeviation="1"/>
<feComposite in2="hardAlpha" operator="out"/>
<feColorMatrix type="matrix" values="0 0 0 0 0.0705882 0 0 0 0 0.0705882 0 0 0 0 0.0705882 0 0 0 0.16 0"/>
<feBlend mode="normal" in2="BackgroundImageFix" result="effect1_dropShadow_113_4328"/>
<feBlend mode="normal" in="SourceGraphic" in2="effect1_dropShadow_113_4328" result="shape"/>
</filter>
<clipPath id="clip0_113_4328">
<rect x="2" y="2" width="48" height="48" rx="20" fill="white"/>
</clipPath>
</defs>
</svg>
