<svg width="32" height="32" viewBox="0 0 32 32" fill="none" xmlns="http://www.w3.org/2000/svg">
<path fill-rule="evenodd" clip-rule="evenodd" d="M25.4284 25.4266C21.3536 29.5019 15.3197 30.3823 10.3818 28.0988C9.6529 27.8053 9.05527 27.5681 8.48712 27.5681C6.90461 27.5775 4.93485 29.1119 3.91111 28.0894C2.88736 27.0655 4.42298 25.0942 4.42298 23.5021C4.42298 22.9339 4.19518 22.347 3.90173 21.6166C1.61707 16.6796 2.49877 10.6437 6.57364 6.56969C11.7754 1.36599 20.2266 1.36599 25.4284 6.56835C30.6396 11.7801 30.6302 20.2242 25.4284 25.4266Z" stroke="#A7A7A7" stroke-width="2" stroke-linecap="round" stroke-linejoin="round"/>
<path d="M21.2525 16.5508H21.2645" stroke="#A7A7A7" stroke-width="2.66667" stroke-linecap="round" stroke-linejoin="round"/>
<path d="M15.9072 16.5508H15.9192" stroke="#A7A7A7" stroke-width="2.66667" stroke-linecap="round" stroke-linejoin="round"/>
<path d="M10.5618 16.5508H10.5738" stroke="#A7A7A7" stroke-width="2.66667" stroke-linecap="round" stroke-linejoin="round"/>
</svg>
