<svg width="26" height="26" viewBox="0 0 26 26" fill="none" xmlns="http://www.w3.org/2000/svg">
<path fill-rule="evenodd" clip-rule="evenodd" d="M13.0003 2.16699C18.9738 2.16699 23.8337 7.02683 23.8337 13.0003C23.8337 18.9738 18.9738 23.8337 13.0003 23.8337C7.02683 23.8337 2.16699 18.9738 2.16699 13.0003C2.16699 7.02683 7.02683 2.16699 13.0003 2.16699ZM13.0003 3.79199C7.92274 3.79199 3.79199 7.92274 3.79199 13.0003C3.79199 18.0779 7.92274 22.2087 13.0003 22.2087C18.0779 22.2087 22.2087 18.0779 22.2087 13.0003C22.2087 7.92274 18.0779 3.79199 13.0003 3.79199ZM17.3347 10.8617C17.6522 11.1781 17.6532 11.6926 17.3369 12.0111L13.5756 15.7876C13.4542 15.9107 13.2969 15.9901 13.1284 16.0169L13.0003 16.027C12.7847 16.027 12.5767 15.9415 12.4251 15.7876L8.66483 12.0111C8.34741 11.6926 8.34958 11.1781 8.66699 10.8617C8.98549 10.5454 9.50007 10.5454 9.81641 10.8639L13.0003 14.064L16.1853 10.8639C16.5017 10.5454 17.0162 10.5454 17.3347 10.8617Z" fill="#333333"/>
</svg>
