<svg width="350" height="310" viewBox="0 0 350 310" fill="none" xmlns="http://www.w3.org/2000/svg">
<path d="M298.341 240.669C304.848 228.52 312.594 228.185 315.943 232.63C318.897 236.55 317.323 248.481 309.948 252.917C309.948 252.917 314.883 262.371 306.232 268.36C306.232 268.36 319.888 270.413 310.632 290.443H273.536C273.536 290.443 293.642 249.443 298.341 240.669Z" stroke="#322F7F" stroke-width="0.7" stroke-miterlimit="10"/>
<path d="M312.372 234.298C312.372 234.298 293.765 261.612 285.432 290.442" stroke="#322F7F" stroke-width="0.7" stroke-miterlimit="10"/>
<path d="M265.238 302.564C265.238 302.564 272.08 275.95 288.87 275.428C295.699 275.215 293.576 284.838 293.576 284.838C293.576 284.838 302.367 274.446 307.272 276.688C312.178 278.929 308.238 289.626 308.238 289.626C308.238 289.626 313.49 287.099 316.336 293.19C316.336 293.19 321.15 287.462 326.184 290.527C331.218 293.591 327.606 302.564 327.606 302.564L265.238 302.564Z" fill="#D8C8ED"/>
<path d="M256.911 236.667C251.672 237.471 249.484 244.997 251.832 256.917C254.179 268.836 260.73 301.811 260.73 301.811L278.761 300.397C278.761 300.397 272.092 264.032 270.238 254.573C268.139 243.859 264.822 235.453 256.911 236.667Z" stroke="#7C48C3" stroke-width="0.7" stroke-miterlimit="10"/>
<path d="M257.214 239.854L270.239 301.065" stroke="#7C48C3" stroke-width="0.7" stroke-miterlimit="10"/>
<path d="M42.1238 302.564C42.1238 302.564 27.8606 279.196 24.2185 271.61C20.5771 264.023 26.343 251.524 37.5717 263.113C48.8004 274.701 62.1207 302.564 62.1207 302.564H42.1238Z" stroke="#7C48C3" stroke-width="0.7" stroke-miterlimit="10"/>
<path d="M29.1499 263.112L50.0141 298.619" stroke="#7C48C3" stroke-width="0.7" stroke-miterlimit="10"/>
<path d="M58.4931 239.954C68.508 238.049 77.6122 263.625 77.0053 291.848H52.1203C52.1203 291.848 50.6027 281.782 56.6724 279.077C56.6724 279.077 52.1203 274.854 54.5479 270.605C56.9755 266.356 58.4931 267.266 58.4931 267.266C58.4931 267.266 48.1443 241.922 58.4931 239.954Z" fill="white" stroke="#322F7F" stroke-width="0.7" stroke-miterlimit="10"/>
<path d="M58.4927 242.075C58.4927 242.075 67.2938 261.197 66.3831 284.869" stroke="#322F7F" stroke-width="0.7" stroke-miterlimit="10"/>
<path d="M145.876 144.594H208.262C209.427 144.594 209.861 143.067 208.87 142.454L204.97 140.042C203.333 136.087 198.827 134.176 194.846 135.75L194.736 135.793L193.47 134.378C191.199 131.839 187.463 131.229 184.501 132.912L183.272 127.208C182.14 121.947 177.489 118.191 172.107 118.191C166.72 118.191 162.065 121.955 160.939 127.224L158.978 136.399L157.035 134.825C155.533 133.607 153.585 133.081 151.674 133.377C148.337 133.894 145.875 136.767 145.875 140.144L145.876 144.594Z" fill="#D8C8ED"/>
<path d="M170.397 226.593H211.108V220.778C211.108 218.819 209.766 217.113 207.861 216.653C206.16 216.243 204.38 216.919 203.381 218.356L200.183 222.957L200.075 221.002C199.965 219.002 198.312 217.437 196.309 217.437C194.645 217.437 193.178 218.527 192.698 220.121L192.597 220.458L191.841 218.643C190.275 214.885 186.085 212.963 182.216 214.227C179.26 215.193 177.161 217.823 176.872 220.92L176.816 221.532C173.785 221.532 171.143 223.597 170.411 226.538L170.397 226.593Z" fill="#D8C8ED"/>
<path d="M101.427 144.031C68.2481 144.031 41.3521 165.488 41.3521 191.957C41.3521 218.426 62.4438 239.883 101.427 239.883C111.963 239.883 121.681 238.045 130.103 234.592C134.717 241.136 130.574 250.854 133.457 250.854C136.341 250.854 142.258 238.412 139.614 229.638C152.347 221.387 160.517 208.459 161.501 191.956C163.173 163.931 134.605 144.031 101.427 144.031Z" fill="#7C48C3"/>
<path d="M50.0226 169.264C47.735 164.2 46.8719 157.795 52.4229 155.733C55.687 154.52 59.2122 155.378 60.9867 162.004L80.6966 227.086L65.13 230.424C65.13 230.424 59.2122 218.133 57.6946 209.788C56.66 204.097 64.255 198.346 57.2214 194.223C55.876 193.435 54.3899 192.541 53.9545 191.043C52.9248 187.499 57.486 184.924 57.2207 181.37C57.0212 178.694 55.0262 176.453 53.321 174.549C52.2199 173.318 50.9935 171.412 50.0226 169.264Z" fill="#D8C8ED"/>
<path d="M52.8394 158.045C52.8394 158.045 72.2693 218.726 74.0109 228.52" stroke="white" stroke-width="0.7" stroke-miterlimit="10" stroke-linecap="round" stroke-linejoin="round"/>
<path d="M61.0273 183.992L65.2483 180.403" stroke="white" stroke-width="0.7" stroke-miterlimit="10" stroke-linecap="round" stroke-linejoin="round"/>
<path d="M59.9067 180.403L63.4256 176.945" stroke="white" stroke-width="0.7" stroke-miterlimit="10" stroke-linecap="round" stroke-linejoin="round"/>
<path d="M62.7446 211.457L69.1482 210.589" stroke="white" stroke-width="0.7" stroke-miterlimit="10" stroke-linecap="round" stroke-linejoin="round"/>
<path d="M63.9966 215.268L70.2056 214.188" stroke="white" stroke-width="0.7" stroke-miterlimit="10" stroke-linecap="round" stroke-linejoin="round"/>
<path d="M70.183 223.39L69.0966 186.038C69.0266 183.642 70.9502 181.662 73.347 181.662C75.7613 181.662 77.6912 183.669 77.596 186.082L77.2663 194.424C77.2089 195.883 77.9803 197.264 79.2774 197.935C81.2192 198.939 83.3584 200.796 83.6881 203.461C84.295 208.368 80.7656 212.45 84.295 217.169C86.9788 220.757 88.544 228.549 84.295 231.736C80.046 234.922 71.3968 234.467 70.183 223.39Z" fill="white"/>
<path d="M73.8247 184.545C73.8247 184.545 76.6002 221.896 79.7649 233.416" stroke="#7C48C3" stroke-width="0.7" stroke-miterlimit="10" stroke-linecap="round" stroke-linejoin="round"/>
<path d="M120.8 216.107C120.8 216.107 130.564 198.008 143.624 189.401C157.44 180.297 169.572 179.538 174.579 186.215C178.071 190.87 173.972 198.705 159.154 204.609C147.927 209.083 139.162 217.169 134.368 225.515L120.8 216.107Z" fill="#D8C8ED"/>
<path d="M170.541 186.707C170.541 186.707 147.802 190.648 127.393 220.678" stroke="white" stroke-width="0.7" stroke-miterlimit="10" stroke-linecap="round" stroke-linejoin="round"/>
<path d="M115.705 213.072L134.582 160.159C135.593 157.325 138.87 156.032 141.544 157.413C143.836 158.598 144.841 161.339 143.856 163.724L141.304 169.906C140.175 172.64 140.155 175.669 141.059 178.485C141.518 179.914 141.773 181.676 141.348 183.579C140.286 188.337 137.554 191.372 137.706 193.648C137.858 195.924 140.438 199.425 138.313 204.607C135.279 212.008 132.092 214.892 127.995 218.381L115.705 213.072Z" fill="white"/>
<path d="M140.278 159.053L126.314 199.359L120.8 215.274" stroke="#7C48C3" stroke-width="0.7" stroke-miterlimit="10" stroke-linecap="round" stroke-linejoin="round"/>
<path d="M135.582 198.704L126.313 199.359" stroke="#7C48C3" stroke-width="0.7" stroke-miterlimit="10" stroke-linecap="round" stroke-linejoin="round"/>
<path d="M127.393 196.244L135.582 195.318" stroke="#7C48C3" stroke-width="0.7" stroke-miterlimit="10" stroke-linecap="round" stroke-linejoin="round"/>
<path d="M131.487 184.425L128.906 180.296" stroke="#7C48C3" stroke-width="0.7" stroke-miterlimit="10" stroke-linecap="round" stroke-linejoin="round"/>
<path d="M132.918 180.296L130.539 176.655" stroke="#7C48C3" stroke-width="0.7" stroke-miterlimit="10" stroke-linecap="round" stroke-linejoin="round"/>
<path d="M137.279 167.712L141.045 166.595" stroke="#7C48C3" stroke-width="0.7" stroke-miterlimit="10" stroke-linecap="round" stroke-linejoin="round"/>
<path d="M136.353 170.892L140.278 169.878" stroke="#7C48C3" stroke-width="0.7" stroke-miterlimit="10" stroke-linecap="round" stroke-linejoin="round"/>
<path d="M90.3102 195.241L90.1058 195.108C86.9544 193.063 85.0532 189.561 85.0532 185.804V179.945C85.0532 175.171 88.108 170.932 92.6377 169.422L99.5621 167.114C100.206 166.9 100.83 166.627 101.423 166.298L110.892 161.059C113.254 159.753 116.17 159.998 118.282 161.678C120.986 163.831 121.6 167.696 119.693 170.579C119.196 171.331 118.716 172.041 118.31 172.608C117.197 174.166 116.505 175.981 116.302 177.885L115.424 186.115C114.877 191.239 110.874 195.312 105.761 195.947L97.7162 196.945C95.1234 197.266 92.5012 196.663 90.3102 195.241Z" fill="#750F30"/>
<path d="M113.363 209.367C112.645 214.168 110.223 219.596 102.927 219.596C92.7062 219.596 89.4911 213.347 88.5735 210.612C77.3294 211.602 67.7212 219.236 64.2569 230.047L63.9937 230.945C73.5893 236.565 86.1228 239.883 101.427 239.883C111.963 239.883 121.681 238.045 130.103 234.592C134.717 241.136 130.574 250.854 133.457 250.854C136.341 250.854 142.259 238.412 139.614 229.638C139.709 229.577 139.802 229.512 139.897 229.45C136.377 217.637 125.59 209.541 113.363 209.367Z" fill="#322F7F"/>
<path d="M102.927 219.597C110.223 219.597 112.645 214.169 113.362 209.368C112.738 209.359 112.111 209.364 111.479 209.397L89.5749 210.542C89.2396 210.559 88.9057 210.584 88.5732 210.613C89.4909 213.347 92.706 219.597 102.927 219.597Z" fill="#FDCD06"/>
<path d="M125.491 222.783L126.781 234.315" stroke="white" stroke-width="0.7" stroke-miterlimit="10" stroke-linecap="round" stroke-linejoin="round"/>
<path d="M79.7644 225.211L78.4526 235.833" stroke="white" stroke-width="0.7" stroke-miterlimit="10" stroke-linecap="round" stroke-linejoin="round"/>
<path d="M108.876 200.781C108.876 200.781 108.876 208.975 108.876 211.403C108.876 213.83 107.857 217.169 101.462 217.169C95.0682 217.169 92.7918 214.285 92.7918 211.555C92.7918 208.824 92.7918 192.132 92.7918 192.132C92.7918 192.132 87.6328 190.463 87.6328 186.973C87.6328 183.483 91.123 182.724 92.1849 184.545C92.9122 185.792 93.6388 188.673 94.0252 190.367C94.1883 191.083 94.9128 191.516 95.6226 191.326C96.1903 191.175 96.5851 190.66 96.5851 190.073V177.864C96.5851 176.963 97.3271 176.242 98.2266 176.271C101.146 176.365 107.362 176.408 111.942 175.35C112.704 175.174 113.428 175.762 113.428 176.545V193.497C113.429 196.229 113.277 199.415 108.876 200.781Z" fill="white"/>
<path d="M108.876 200.781C108.876 200.781 103.414 202.26 99.4307 200.439C99.4307 200.439 103.907 207.116 108.876 206.433V200.781Z" fill="#F7DFE2"/>
<path d="M105.083 186.708C105.596 186.708 106.013 186.291 106.013 185.778C106.013 185.264 105.596 184.848 105.083 184.848C104.57 184.848 104.153 185.264 104.153 185.778C104.153 186.291 104.57 186.708 105.083 186.708Z" fill="#212149"/>
<path d="M111.52 186.708C112.033 186.708 112.45 186.291 112.45 185.778C112.45 185.264 112.033 184.848 111.52 184.848C111.007 184.848 110.59 185.264 110.59 185.778C110.59 186.291 111.007 186.708 111.52 186.708Z" fill="#212149"/>
<path d="M108.573 187.163C108.26 187.163 108.004 186.907 108.004 186.594V185.417C108.004 185.104 108.26 184.848 108.573 184.848C108.886 184.848 109.142 185.104 109.142 185.417V186.594C109.141 186.907 108.886 187.163 108.573 187.163Z" fill="#E8493F"/>
<path d="M103.549 191.528C104.21 191.528 104.746 190.992 104.746 190.331C104.746 189.671 104.21 189.135 103.549 189.135C102.889 189.135 102.353 189.671 102.353 190.331C102.353 190.992 102.889 191.528 103.549 191.528Z" fill="#7C48C3"/>
<path d="M111.52 191.528C112.181 191.528 112.716 190.992 112.716 190.331C112.716 189.671 112.181 189.135 111.52 189.135C110.859 189.135 110.324 189.671 110.324 190.331C110.324 190.992 110.859 191.528 111.52 191.528Z" fill="#7C48C3"/>
<path d="M103.764 182.462L102.498 182.922C102.224 183.022 101.917 182.878 101.818 182.604C101.717 182.33 101.861 182.023 102.135 181.924L103.401 181.464C103.675 181.364 103.982 181.507 104.081 181.782C104.181 182.056 104.038 182.363 103.764 182.462Z" fill="#750F30"/>
<path d="M111.698 182.725L110.663 181.864C110.438 181.677 110.407 181.341 110.594 181.117C110.781 180.892 111.118 180.861 111.342 181.048L112.377 181.909C112.602 182.096 112.632 182.433 112.445 182.657C112.259 182.881 111.923 182.912 111.698 182.725Z" fill="#750F30"/>
<path d="M107.256 189.638L108.56 189.792C109.619 189.918 110.17 191.165 109.505 191.998C109.08 192.53 108.466 192.934 107.593 192.83C106.553 192.707 106.035 192.118 105.785 191.466C105.421 190.512 106.241 189.517 107.256 189.638Z" fill="#212149"/>
<path d="M311.278 91.5656C309.462 66.1486 282.162 47.39 250.302 49.6664C218.442 51.9435 192.376 73.0128 195.904 99.8109C197.981 115.59 206.714 127.444 219.507 134.494C219.507 134.494 226.004 137.308 228.98 138.597C231.744 139.795 244.708 142.075 254.648 141.815C256.104 144.166 258.997 147.236 264.181 148.611C271.607 150.581 274.955 148.763 274.955 147.549C274.955 146.55 270.233 143.908 267.713 140.299C297.912 134.503 312.91 114.397 311.278 91.5656Z" fill="#D8C8ED"/>
<path d="M200.046 83.4813C201.842 79.1049 211.23 74.2546 218.639 82.3627C226.049 90.4708 238.707 116.342 239.718 131.925C239.718 131.925 230.882 139.019 228.677 138.065C226.472 137.11 219.587 131.966 219.882 127.714C220.177 123.463 219.677 121.226 217.62 120.107C215.563 118.989 212.402 115.97 212.864 112.097C213.326 108.225 215.423 108.814 211.09 104.815C206.756 100.815 195.573 94.3852 200.046 83.4813Z" fill="white"/>
<path d="M204.101 83.202C204.52 83.202 224.223 101.968 234.141 135.928" stroke="#7C48C3" stroke-width="0.7" stroke-miterlimit="10" stroke-linecap="round" stroke-linejoin="round"/>
<path d="M245.973 45.1248C250.831 45.1465 252.802 56.7133 248.483 69.4589C244.78 80.3908 243.697 114.431 245.821 122.928L234.934 131.393C234.934 131.393 228.531 112.499 228.523 94.4398C228.513 72.1343 236.118 45.0807 245.973 45.1248Z" fill="#322F7F"/>
<path d="M246.277 47.4005C246.277 47.4005 231.861 88.6459 240.814 125.76" stroke="white" stroke-width="0.7" stroke-miterlimit="10" stroke-linecap="round" stroke-linejoin="round"/>
<path d="M271.92 107.967C271.92 107.967 280.202 89.4579 283.9 83.3602C289.573 74.0054 294.741 69.5835 299.514 71.8172C305.004 74.3862 299.958 82.2703 294.936 91.3248C290.959 98.4963 282.092 115.872 282.092 115.872L271.92 107.967Z" fill="white"/>
<path d="M297.988 73.3691C297.988 73.3691 282.626 97.153 276.574 111.584" stroke="#7C48C3" stroke-width="0.7" stroke-miterlimit="10" stroke-linecap="round" stroke-linejoin="round"/>
<path d="M280.266 109.872C279.574 108.393 287.615 100.493 288.858 99.2684C292.292 95.8881 296.149 92.9376 300.352 90.5758C305.749 87.542 314.875 83.1754 321.247 84.9996C325.118 86.1077 326.035 89.8562 325.123 93.5508C323.727 99.2096 318.56 98.1106 314.408 100.358C307.049 104.339 314.226 115.233 304.666 118.696C303.047 119.283 287.947 128.076 282.359 128.68C271.137 128.087 280.269 109.878 280.266 109.872Z" fill="#322F7F"/>
<path d="M323.359 89.2472C323.359 89.2472 297.886 98.2016 284.485 118.889" stroke="white" stroke-width="0.7" stroke-miterlimit="10" stroke-linecap="round" stroke-linejoin="round"/>
<path d="M255.47 87.9907C249.765 89.8037 246.768 94.2459 246.085 99.4805C245.403 104.716 247.027 108.302 243.426 110.44C239.259 112.914 242.218 116.442 240.965 118.567C239.497 121.058 238.461 119.515 235.958 121.905C233.454 124.295 232.831 129.393 234.934 131.394C240.51 136.7 259.06 138.748 280.683 133.093C282.141 132.712 283.809 131.937 285.339 131.106C289.285 128.964 292.125 125.147 292.832 120.714C293.069 119.223 293.064 117.748 292.574 116.556C290.471 111.434 285.122 113.537 283.87 109.641C282.619 105.744 284.475 101.926 281.481 98.2331C278.067 94.0226 271.693 97.0949 269.873 93.9085C268.051 90.7221 266.571 84.4627 255.47 87.9907Z" fill="#750F30"/>
<path d="M195.583 170.082L183.438 174.152C183.033 174.287 182.822 174.731 182.972 175.131C183.081 175.426 183.363 175.62 183.677 175.62H185.118L183.536 176.413C183.098 176.633 182.964 177.195 183.255 177.589C183.438 177.837 183.751 177.956 184.052 177.892L185.117 177.668L183.771 178.679C183.443 178.926 183.405 179.404 183.69 179.7C183.879 179.894 184.164 179.96 184.418 179.865L185.884 179.322L184.807 180.328C184.54 180.578 184.518 180.994 184.757 181.271C184.967 181.515 185.319 181.579 185.601 181.423L192.286 177.743C192.769 177.478 193.371 177.583 193.735 177.996L192.513 178.928C192.146 179.208 192.036 179.712 192.252 180.12C192.509 180.604 193.124 180.768 193.588 180.475L199.009 177.061L195.583 170.082Z" stroke="#7C48C3" stroke-width="0.7" stroke-miterlimit="10"/>
<path d="M259.515 131.394C265.575 131.161 269.256 126.516 271.222 122.882C270.264 122.793 269.293 122.779 268.311 122.861L264.978 122.929V107.467C266.267 107.467 267.311 106.422 267.311 105.134C267.311 103.845 266.267 102.801 264.978 102.801C264.932 102.801 264.888 102.812 264.843 102.814C264.539 102.608 263.459 102.565 263.459 99.89C263.459 97.7522 260.641 99.1039 260.426 97.209C260.198 95.2014 257.696 94.0107 255.47 96.7421C253.054 99.7066 249.347 96.7722 249.387 100.545C249.387 100.545 249.387 109.546 249.387 111.708C249.387 116.203 252.801 116.556 252.801 116.556V124.168L248.482 124.532C249.157 126.654 251.593 131.697 259.515 131.394Z" fill="white"/>
<path d="M267.714 140.299C274.479 139 280.475 136.979 285.7 134.374L284.624 132.153C282.062 126.865 276.936 123.406 271.222 122.881C269.257 126.515 265.575 131.16 259.515 131.393C251.593 131.697 249.156 126.653 248.483 124.531L242.77 125.013C237.507 125.457 232.78 128.382 230.019 132.885C229.138 134.322 228.093 135.938 226.881 137.688C220.709 146.598 210.116 159.048 193.736 169.854L197.947 178.685C197.947 178.685 221.696 166.592 233.664 143.907L233.682 143.914L235.821 140.232C241.158 141.161 248.483 141.976 254.648 141.815C256.104 144.166 258.997 147.236 264.181 148.611C271.607 150.581 274.955 148.763 274.955 147.549C274.955 146.55 270.234 143.907 267.714 140.299Z" fill="#7C48C3"/>
<path d="M252.801 124.167C252.801 124.167 253.898 125.747 258.072 125.76C262.247 125.773 264.978 122.928 264.978 122.928" stroke="#FDCD06" stroke-width="0.7" stroke-miterlimit="10" stroke-linecap="round" stroke-linejoin="round"/>
<path d="M258.072 127.886C258.659 127.886 259.135 127.41 259.135 126.823C259.135 126.236 258.659 125.761 258.072 125.761C257.485 125.761 257.01 126.236 257.01 126.823C257.01 127.41 257.485 127.886 258.072 127.886Z" fill="#FDCD06"/>
<path d="M208.685 158.54L216.06 166.081L218.24 163.961L211.144 156.16L208.685 158.54Z" fill="#F3B3BE"/>
<path d="M213.846 153.406L216.235 150.783L224.222 157.297L221.857 160.103L213.846 153.406Z" fill="#F3B3BE"/>
<path d="M252.801 116.556C252.801 116.556 256.67 117.807 260.198 115.873C260.198 115.873 258.605 120.539 252.801 121.905V116.556Z" fill="#F7DFE2"/>
<path d="M256.399 106.439C256.913 106.439 257.329 106.023 257.329 105.51C257.329 104.996 256.913 104.58 256.399 104.58C255.886 104.58 255.47 104.996 255.47 105.51C255.47 106.023 255.886 106.439 256.399 106.439Z" fill="#212149"/>
<path d="M250.663 106.439C251.176 106.439 251.592 106.023 251.592 105.51C251.592 104.996 251.176 104.58 250.663 104.58C250.149 104.58 249.733 104.996 249.733 105.51C249.733 106.023 250.149 106.439 250.663 106.439Z" fill="#212149"/>
<path d="M253.531 107.244C253.844 107.244 254.1 106.988 254.1 106.675V105.498C254.1 105.186 253.844 104.929 253.531 104.929C253.218 104.929 252.962 105.186 252.962 105.498V106.675C252.962 106.988 253.218 107.244 253.531 107.244Z" fill="#E8493F"/>
<path d="M256.876 109.872C257.537 109.872 258.073 109.336 258.073 108.676C258.073 108.015 257.537 107.479 256.876 107.479C256.216 107.479 255.68 108.015 255.68 108.676C255.68 109.336 256.216 109.872 256.876 109.872Z" fill="#7C48C3"/>
<path d="M250.96 109.872C251.621 109.872 252.156 109.336 252.156 108.676C252.156 108.015 251.621 107.479 250.96 107.479C250.299 107.479 249.764 108.015 249.764 108.676C249.764 109.336 250.299 109.872 250.96 109.872Z" fill="#7C48C3"/>
<path d="M256.857 102.727L257.718 103.762C257.905 103.987 258.241 104.018 258.465 103.831C258.69 103.644 258.721 103.307 258.534 103.083L257.673 102.048C257.486 101.823 257.149 101.793 256.925 101.98C256.701 102.166 256.67 102.502 256.857 102.727Z" fill="#750F30"/>
<path d="M250.406 102.806L251.441 101.945C251.666 101.758 251.696 101.422 251.509 101.198C251.323 100.973 250.986 100.942 250.762 101.129L249.727 101.99C249.502 102.177 249.471 102.514 249.658 102.738C249.844 102.962 250.181 102.993 250.406 102.806Z" fill="#750F30"/>
<path d="M253.25 108.468L254.365 108.118C254.678 108.02 254.991 108.268 254.966 108.595C254.926 109.137 254.716 109.823 253.92 109.869C253.11 109.915 252.907 109.424 252.872 109.034C252.849 108.78 253.007 108.544 253.25 108.468Z" fill="#212149"/>
<path d="M236.118 140.282L238.006 136.471" stroke="#7C48C3" stroke-width="0.7" stroke-miterlimit="10"/>
<path d="M273.172 131.393L274.117 134.597" stroke="#7C48C3" stroke-width="0.7" stroke-miterlimit="10"/>
<path d="M84.0906 69.7179H64.17C59.55 69.7179 55.77 73.4979 55.77 78.1179V114.362C55.77 118.982 59.55 122.762 64.17 122.762H74.1303L81.8695 132.959C82.6395 133.974 84.2537 133.269 84.0325 132.014L82.4015 122.762H84.0906C88.7106 122.762 92.4906 118.982 92.4906 114.362V78.1179C92.4906 73.4979 88.7113 69.7179 84.0906 69.7179Z" stroke="#322F7F" stroke-width="0.7" stroke-miterlimit="10"/>
<path d="M75.6481 108.905H72.0067C71.4586 108.905 71.0106 108.457 71.0106 107.909L69.8066 80.0842C69.8066 79.5361 70.2546 79.0881 70.8027 79.0881H77.459C78.0071 79.0881 78.4551 79.5361 78.4551 80.0842L76.6442 107.909C76.6442 108.456 76.1962 108.905 75.6481 108.905Z" fill="#7C48C3"/>
<path d="M74.1304 116.795C72.7535 116.795 71.6265 115.668 71.6265 114.291C71.6265 112.914 72.7535 111.787 74.1304 111.787C75.5073 111.787 76.6343 112.914 76.6343 114.291C76.6343 115.668 75.508 116.795 74.1304 116.795Z" fill="#7C48C3"/>
<path d="M307.887 167.34H277.007C270.727 167.34 265.589 172.478 265.589 178.758V183.274C265.589 189.554 270.727 194.692 277.007 194.692H293.177L302.205 202.195C302.741 202.641 303.523 202.094 303.289 201.438L300.879 194.692H307.887C314.167 194.692 319.305 189.554 319.305 183.274V178.758C319.305 172.478 314.167 167.34 307.887 167.34Z" stroke="#322F7F" stroke-width="0.7" stroke-miterlimit="10"/>
<path d="M299.021 176.287C297.277 174.996 294.794 175.367 293.503 177.112L292.447 178.54L291.39 177.112C290.1 175.367 287.617 174.996 285.872 176.287C284.128 177.577 283.756 180.06 285.047 181.805L289.125 187.318C289.311 187.608 289.543 187.871 289.808 188.11C289.819 188.12 289.83 188.13 289.84 188.14C289.924 188.213 289.996 188.296 290.087 188.364C290.188 188.439 290.3 188.489 290.406 188.553C290.435 188.572 290.465 188.589 290.495 188.606C290.683 188.712 290.876 188.803 291.075 188.875C291.123 188.894 291.171 188.91 291.22 188.926C291.399 188.983 291.577 189.029 291.761 189.06C291.849 189.076 291.936 189.087 292.026 189.097C292.167 189.111 292.306 189.12 292.447 189.12C292.588 189.12 292.727 189.111 292.869 189.097C292.958 189.087 293.046 189.076 293.134 189.06C293.317 189.029 293.496 188.983 293.674 188.926C293.723 188.91 293.772 188.893 293.82 188.875C294.019 188.803 294.211 188.713 294.4 188.606C294.43 188.589 294.458 188.571 294.488 188.553C294.595 188.49 294.706 188.439 294.808 188.364C294.899 188.296 294.97 188.213 295.054 188.14C295.065 188.13 295.076 188.12 295.086 188.11C295.35 187.873 295.581 187.612 295.766 187.323L299.848 181.805C301.137 180.06 300.765 177.577 299.021 176.287Z" fill="#7C48C3"/>
<path d="M33.6763 302.565H322.283" stroke="#7C48C3" stroke-width="0.7" stroke-miterlimit="10"/>
<path d="M303.468 302.565C303.468 302.565 301.699 292.341 290.9 293.659C290.9 293.659 290.722 277.679 281.011 277.679C271.3 277.679 267.051 291.335 267.051 291.335C267.051 291.335 264.28 284.355 255.499 288.604C255.499 288.604 251.015 268.974 237.614 269.181C224.212 269.388 216 289.818 215.427 296.797C215.427 296.797 211.902 288.31 202.756 288.305C193.61 288.3 189.664 296.494 189.664 296.494C189.664 296.494 173.125 292.549 164.703 302.564L303.468 302.565Z" fill="#7C48C3"/>
<path d="M43.9951 302.564C43.9951 302.564 53.555 284.659 65.9975 284.659C65.9975 284.659 60.3114 264.188 71.272 260.546C82.2326 256.903 89.2571 274.506 90.2973 279.665C90.2973 279.665 93.1582 264.795 101.352 265.705C109.547 266.615 108.035 278.122 108.035 278.122C108.035 278.122 120.486 253.5 133.218 255.083C145.95 256.667 145.378 281.989 145.378 281.989C145.378 281.989 163.262 284.623 163.262 302.565H43.9951V302.564Z" fill="#7C48C3"/>
<path d="M236.915 276.567V302.564" stroke="white" stroke-width="0.7" stroke-miterlimit="10"/>
<path d="M245.959 284.623L236.915 292.246" stroke="white" stroke-width="0.7" stroke-miterlimit="10"/>
<path d="M225.892 288.435L236.915 297.102" stroke="white" stroke-width="0.7" stroke-miterlimit="10"/>
<path d="M171.484 38.3705H152.1C143.37 38.3705 136.227 45.5133 136.227 54.243V58.6005C136.227 67.3302 143.37 74.473 152.1 74.473H156.916V82.2493C156.916 83.1285 158.006 83.5359 158.583 82.8723L165.882 74.473H171.484C180.214 74.473 187.356 67.3302 187.356 58.6005V54.243C187.356 45.5133 180.214 38.3705 171.484 38.3705Z" stroke="#322F7F" stroke-width="0.7" stroke-miterlimit="10"/>
<path d="M148.588 60.0866C149.752 60.0866 150.697 59.1423 150.697 57.9775C150.697 56.8127 149.752 55.8684 148.588 55.8684C147.423 55.8684 146.479 56.8127 146.479 57.9775C146.479 59.1423 147.423 60.0866 148.588 60.0866Z" fill="#7C48C3"/>
<path d="M176.014 60.0866C177.179 60.0866 178.123 59.1423 178.123 57.9775C178.123 56.8127 177.179 55.8684 176.014 55.8684C174.85 55.8684 173.905 56.8127 173.905 57.9775C173.905 59.1423 174.85 60.0866 176.014 60.0866Z" fill="#7C48C3"/>
<path d="M162.301 60.0866C163.465 60.0866 164.41 59.1423 164.41 57.9775C164.41 56.8127 163.465 55.8684 162.301 55.8684C161.136 55.8684 160.191 56.8127 160.191 57.9775C160.191 59.1423 161.136 60.0866 162.301 60.0866Z" fill="#7C48C3"/>
<path d="M238.922 174.642L211.076 199.193C209.739 200.371 209.611 202.409 210.789 203.746L224.649 219.465L173.18 264.843L159.32 249.123C158.142 247.787 156.104 247.659 154.768 248.837L126.922 273.387C125.585 274.565 125.457 276.604 126.635 277.94L140.495 293.66L257.334 190.649L243.475 174.929C242.297 173.592 240.259 173.464 238.922 174.642Z" fill="#AA88D8"/>
<path d="M136.3 288.903C136.3 288.903 129.109 297.102 118.609 292.877C113.308 290.744 110.197 278.776 117.273 278.788C122.378 278.796 123.349 299.889 107.204 301.834C101.264 302.55 95.9393 299.314 92.6486 294.65C90.2637 291.27 88.4178 287.123 89.3327 282.92C89.5819 281.775 90.0292 280.642 90.8363 279.793C92.7305 277.801 95.2309 278.549 96.2214 280.93C98.5188 286.453 95.4367 292.377 91.0428 295.843C83.6564 301.671 73.9432 303.846 65.3486 301.066" stroke="#322F7F" stroke-width="1.4" stroke-miterlimit="10"/>
<path d="M148.337 299.889C158.487 305.343 171.378 304.244 180.527 296.178L254.815 230.681C264.506 222.137 266.964 208.451 261.718 197.323L148.337 299.889Z" fill="#AA88D8"/>
<path d="M257.334 190.648L140.494 293.66C142.787 296.261 145.452 298.339 148.337 299.889L261.719 197.323C260.604 194.959 259.149 192.708 257.334 190.648Z" fill="#D8C8ED"/>
<path d="M115.935 102.65L114.404 102.642C114.315 102.201 114.159 101.813 113.934 101.478C113.714 101.144 113.444 100.862 113.124 100.634C112.808 100.402 112.457 100.227 112.071 100.11C111.685 99.9926 111.281 99.9328 110.862 99.9306C110.096 99.9265 109.401 100.116 108.777 100.5C108.158 100.884 107.663 101.451 107.292 102.203C106.926 102.954 106.74 103.877 106.734 104.972C106.728 106.067 106.904 106.992 107.262 107.748C107.624 108.503 108.113 109.076 108.728 109.466C109.348 109.856 110.04 110.053 110.806 110.057C111.226 110.06 111.63 110.004 112.017 109.891C112.405 109.778 112.758 109.609 113.076 109.384C113.398 109.155 113.671 108.875 113.896 108.542C114.124 108.206 114.284 107.82 114.377 107.384L115.909 107.392C115.79 108.038 115.577 108.615 115.269 109.124C114.962 109.633 114.581 110.065 114.126 110.421C113.671 110.773 113.161 111.039 112.596 111.222C112.036 111.404 111.436 111.493 110.798 111.49C109.719 111.484 108.762 111.216 107.925 110.684C107.088 110.153 106.431 109.4 105.955 108.426C105.479 107.452 105.244 106.298 105.252 104.964C105.259 103.63 105.506 102.479 105.993 101.51C106.48 100.541 107.145 99.7955 107.988 99.2731C108.83 98.7506 109.791 98.4923 110.869 98.498C111.508 98.5014 112.106 98.5972 112.665 98.7855C113.228 98.9737 113.735 99.2481 114.186 99.6087C114.636 99.9651 115.013 100.399 115.315 100.911C115.616 101.419 115.823 101.999 115.935 102.65ZM129.067 105.091C129.059 106.425 128.812 107.576 128.325 108.545C127.838 109.514 127.173 110.26 126.331 110.782C125.488 111.305 124.527 111.563 123.449 111.557C122.37 111.552 121.413 111.283 120.576 110.752C119.739 110.22 119.082 109.468 118.606 108.493C118.13 107.519 117.895 106.365 117.902 105.032C117.91 103.698 118.157 102.547 118.644 101.578C119.131 100.609 119.796 99.8629 120.638 99.3405C121.481 98.818 122.442 98.5597 123.52 98.5654C124.599 98.5712 125.557 98.8398 126.393 99.3712C127.23 99.9026 127.887 100.655 128.363 101.629C128.84 102.603 129.074 103.757 129.067 105.091ZM127.585 105.083C127.591 103.988 127.413 103.063 127.05 102.308C126.692 101.553 126.203 100.98 125.584 100.59C124.969 100.199 124.278 100.002 123.512 99.998C122.747 99.9939 122.052 100.184 121.428 100.567C120.809 100.951 120.314 101.519 119.943 102.27C119.577 103.021 119.39 103.945 119.384 105.04C119.378 106.135 119.554 107.06 119.913 107.815C120.275 108.57 120.764 109.143 121.379 109.533C121.998 109.924 122.691 110.121 123.457 110.125C124.222 110.129 124.915 109.939 125.535 109.555C126.158 109.172 126.653 108.604 127.02 107.853C127.39 107.101 127.579 106.178 127.585 105.083ZM141.704 98.8352L141.635 111.481L140.153 111.474L133.316 101.508L133.193 101.507L133.138 111.436L131.607 111.428L131.676 98.7818L133.158 98.7897L140.02 108.78L140.143 108.781L140.198 98.8272L141.704 98.8352ZM144.07 100.206L144.077 98.8479L153.562 98.8984L153.554 100.257L149.578 100.236L149.516 111.523L147.984 111.515L148.046 100.228L144.07 100.206ZM154.897 111.552L153.292 111.544L158.005 98.9221L159.585 98.9305L164.159 111.601L162.554 111.593L158.833 100.927L158.735 100.927L154.897 111.552ZM155.517 106.615L161.988 106.65L161.981 108.008L155.51 107.974L155.517 106.615ZM175.759 102.969L174.228 102.961C174.139 102.52 173.983 102.132 173.758 101.797C173.538 101.463 173.268 101.181 172.948 100.953C172.632 100.721 172.281 100.546 171.895 100.429C171.509 100.311 171.106 100.252 170.686 100.249C169.92 100.245 169.225 100.435 168.601 100.819C167.982 101.202 167.487 101.77 167.116 102.521C166.75 103.273 166.564 104.196 166.558 105.291C166.552 106.386 166.728 107.311 167.086 108.066C167.448 108.822 167.937 109.394 168.552 109.785C169.172 110.175 169.864 110.372 170.63 110.376C171.05 110.378 171.454 110.323 171.841 110.21C172.229 110.097 172.582 109.928 172.9 109.703C173.222 109.474 173.496 109.194 173.72 108.861C173.948 108.525 174.109 108.139 174.201 107.703L175.733 107.711C175.614 108.357 175.401 108.934 175.093 109.443C174.786 109.952 174.405 110.384 173.95 110.74C173.495 111.091 172.985 111.358 172.42 111.541C171.86 111.723 171.26 111.812 170.622 111.809C169.544 111.803 168.586 111.534 167.749 111.003C166.912 110.472 166.255 109.719 165.779 108.745C165.303 107.771 165.068 106.617 165.076 105.283C165.083 103.949 165.33 102.798 165.817 101.829C166.304 100.86 166.969 100.114 167.812 99.5919C168.654 99.0694 169.615 98.8111 170.694 98.8168C171.332 98.8202 171.93 98.916 172.489 99.1043C173.052 99.2925 173.559 99.5669 174.01 99.9275C174.46 100.284 174.837 100.718 175.139 101.23C175.44 101.738 175.647 102.318 175.759 102.969ZM177.556 100.385L177.564 99.0263L187.048 99.0769L187.041 100.435L183.064 100.414L183.002 111.702L181.471 111.694L181.533 100.406L177.556 100.385Z" fill="#7C48C3"/>
</svg>
