<svg width="250" height="30" viewBox="0 0 250 30" fill="none" xmlns="http://www.w3.org/2000/svg">
<path d="M0 15C0 6.71573 6.71573 0 15 0H235C243.284 0 250 6.71573 250 15C250 23.2843 243.284 30 235 30H15C6.71573 30 0 23.2843 0 15Z" fill="#7C48C3"/>
<path d="M208.38 12.6V11.77H210.26V19H209.34V12.6H208.38ZM215.853 13.49C215.706 12.75 215.25 12.38 214.483 12.38C213.89 12.38 213.446 12.61 213.153 13.07C212.86 13.5233 212.716 14.2733 212.723 15.32C212.876 14.9733 213.13 14.7033 213.483 14.51C213.843 14.31 214.243 14.21 214.683 14.21C215.37 14.21 215.916 14.4233 216.323 14.85C216.736 15.2767 216.943 15.8667 216.943 16.62C216.943 17.0733 216.853 17.48 216.673 17.84C216.5 18.2 216.233 18.4867 215.873 18.7C215.52 18.9133 215.09 19.02 214.583 19.02C213.896 19.02 213.36 18.8667 212.973 18.56C212.586 18.2533 212.316 17.83 212.163 17.29C212.01 16.75 211.933 16.0833 211.933 15.29C211.933 12.8433 212.786 11.62 214.493 11.62C215.146 11.62 215.66 11.7967 216.033 12.15C216.406 12.5033 216.626 12.95 216.693 13.49H215.853ZM214.493 14.98C214.206 14.98 213.936 15.04 213.683 15.16C213.43 15.2733 213.223 15.45 213.063 15.69C212.91 15.9233 212.833 16.21 212.833 16.55C212.833 17.0567 212.98 17.47 213.273 17.79C213.566 18.1033 213.986 18.26 214.533 18.26C215 18.26 215.37 18.1167 215.643 17.83C215.923 17.5367 216.063 17.1433 216.063 16.65C216.063 16.13 215.93 15.7233 215.663 15.43C215.396 15.13 215.006 14.98 214.493 14.98ZM218.611 19.06C218.437 19.06 218.291 19 218.171 18.88C218.051 18.76 217.991 18.6133 217.991 18.44C217.991 18.2667 218.051 18.12 218.171 18C218.291 17.88 218.437 17.82 218.611 17.82C218.777 17.82 218.917 17.88 219.031 18C219.151 18.12 219.211 18.2667 219.211 18.44C219.211 18.6133 219.151 18.76 219.031 18.88C218.917 19 218.777 19.06 218.611 19.06ZM218.611 14.78C218.437 14.78 218.291 14.72 218.171 14.6C218.051 14.48 217.991 14.3333 217.991 14.16C217.991 13.9867 218.051 13.84 218.171 13.72C218.291 13.6 218.437 13.54 218.611 13.54C218.777 13.54 218.917 13.6 219.031 13.72C219.151 13.84 219.211 13.9867 219.211 14.16C219.211 14.3333 219.151 14.48 219.031 14.6C218.917 14.72 218.777 14.78 218.611 14.78ZM220.06 12.6V11.77H221.94V19H221.02V12.6H220.06ZM228.113 12.56H224.603V14.84C224.756 14.6267 224.983 14.4533 225.283 14.32C225.583 14.18 225.906 14.11 226.253 14.11C226.806 14.11 227.256 14.2267 227.603 14.46C227.949 14.6867 228.196 14.9833 228.343 15.35C228.496 15.71 228.573 16.0933 228.573 16.5C228.573 16.98 228.483 17.41 228.303 17.79C228.123 18.17 227.846 18.47 227.473 18.69C227.106 18.91 226.649 19.02 226.103 19.02C225.403 19.02 224.836 18.84 224.403 18.48C223.969 18.12 223.706 17.64 223.613 17.04H224.503C224.589 17.42 224.773 17.7167 225.053 17.93C225.333 18.1433 225.686 18.25 226.113 18.25C226.639 18.25 227.036 18.0933 227.303 17.78C227.569 17.46 227.703 17.04 227.703 16.52C227.703 16 227.569 15.6 227.303 15.32C227.036 15.0333 226.643 14.89 226.123 14.89C225.769 14.89 225.459 14.9767 225.193 15.15C224.933 15.3167 224.743 15.5467 224.623 15.84H223.763V11.76H228.113V12.56Z" fill="white"/>
<path d="M30 6.25C25.168 6.25 21.25 10.168 21.25 15C21.25 19.832 25.168 23.75 30 23.75C34.832 23.75 38.75 19.832 38.75 15C38.75 10.168 34.832 6.25 30 6.25ZM32.8145 15.1348L28.5488 18.2383C28.5254 18.2551 28.4979 18.2651 28.4692 18.2673C28.4404 18.2694 28.4117 18.2636 28.3861 18.2505C28.3604 18.2374 28.3389 18.2175 28.3239 18.1929C28.3088 18.1684 28.3008 18.1401 28.3008 18.1113V11.9082C28.3007 11.8793 28.3086 11.851 28.3236 11.8264C28.3386 11.8017 28.3602 11.7817 28.3858 11.7686C28.4115 11.7555 28.4404 11.7497 28.4691 11.7519C28.4979 11.7541 28.5255 11.7643 28.5488 11.7812L32.8145 14.8828C32.8346 14.8971 32.851 14.9159 32.8624 14.9379C32.8737 14.9598 32.8797 14.9841 32.8797 15.0088C32.8797 15.0335 32.8737 15.0578 32.8624 15.0797C32.851 15.1016 32.8346 15.1205 32.8145 15.1348Z" fill="white"/>
<path d="M49 15.5C49 14.1193 50.1193 13 51.5 13H196.5C197.881 13 199 14.1193 199 15.5C199 16.8807 197.881 18 196.5 18H51.5C50.1193 18 49 16.8807 49 15.5Z" fill="#F5F5F5"/>
<path d="M49 15.5C49 14.1193 50.1193 13 51.5 13H149.5C150.881 13 152 14.1193 152 15.5C152 16.8807 150.881 18 149.5 18H51.5C50.1193 18 49 16.8807 49 15.5Z" fill="#FFA2B8"/>
<circle cx="151" cy="15" r="4" fill="white"/>
</svg>
