<svg width="30" height="30" viewBox="0 0 30 30" fill="none" xmlns="http://www.w3.org/2000/svg">
<path d="M25.875 6.39062H4.125C4.00482 6.39062 3.88957 6.43836 3.80459 6.52334C3.71961 6.60832 3.67188 6.72357 3.67188 6.84375V22.25C3.67188 22.6105 3.81509 22.9563 4.07003 23.2112C4.32496 23.4662 4.67072 23.6094 5.03125 23.6094H24.9688C25.3293 23.6094 25.675 23.4662 25.93 23.2112C26.1849 22.9563 26.3281 22.6105 26.3281 22.25V6.84375C26.3281 6.72357 26.2804 6.60832 26.1954 6.52334C26.1104 6.43836 25.9952 6.39062 25.875 6.39062ZM15 16.1974L5.28953 7.29688H24.7105L15 16.1974ZM12.3526 15L4.57812 22.1265V7.87348L12.3526 15ZM13.0232 15.6151L14.6941 17.1523C14.7777 17.2288 14.8868 17.2711 15 17.2711C15.1132 17.2711 15.2223 17.2288 15.3059 17.1523L16.9768 15.6208L24.7105 22.7031H5.28953L13.0232 15.6151ZM17.6474 15L25.4219 7.87348V22.1265L17.6474 15Z" fill="#7C48C3"/>
</svg>
