<svg width="50" height="50" viewBox="0 0 50 50" fill="none" xmlns="http://www.w3.org/2000/svg">
<path d="M4.1665 25.0001C4.1665 15.1792 4.1665 10.2688 7.2165 7.21675C10.2707 4.16675 15.179 4.16675 24.9998 4.16675C34.8207 4.16675 39.7311 4.16675 42.7811 7.21675C45.8332 10.2709 45.8332 15.1792 45.8332 25.0001C45.8332 34.8209 45.8332 39.7313 42.7811 42.7813C39.7332 45.8334 34.8207 45.8334 24.9998 45.8334C15.179 45.8334 10.2686 45.8334 7.2165 42.7813C4.1665 39.7334 4.1665 34.8209 4.1665 25.0001Z" stroke="#7C48C3" stroke-width="3.125"/>
<path d="M33.3332 20.8333C35.6344 20.8333 37.4998 18.9679 37.4998 16.6667C37.4998 14.3655 35.6344 12.5 33.3332 12.5C31.032 12.5 29.1665 14.3655 29.1665 16.6667C29.1665 18.9679 31.032 20.8333 33.3332 20.8333Z" stroke="#7C48C3" stroke-width="3.125"/>
<path d="M4.1665 26.0419L7.8165 22.8481C8.73137 22.0483 9.91597 21.6259 11.1305 21.6665C12.345 21.7071 13.4988 22.2077 14.3582 23.0669L23.2957 32.0044C23.9892 32.6978 24.9052 33.1243 25.8822 33.2089C26.8593 33.2935 27.8349 33.0307 28.6373 32.4669L29.2603 32.0294C30.4177 31.2164 31.8168 30.8201 33.2286 30.9053C34.6405 30.9904 35.9818 31.5519 37.0332 32.4981L43.7498 38.5419" stroke="#7C48C3" stroke-width="3.125" stroke-linecap="round"/>
</svg>
