<svg width="24" height="25" viewBox="0 0 24 25" fill="none" xmlns="http://www.w3.org/2000/svg">
<path fill-rule="evenodd" clip-rule="evenodd" d="M12.2347 4.539C13.8607 3.511 16.0207 3.227 17.8867 3.825C21.9457 5.134 23.2057 9.559 22.0787 13.08C20.3397 18.61 12.9127 22.735 12.5977 22.908C12.4857 22.97 12.3617 23.001 12.2377 23.001C12.1137 23.001 11.9907 22.971 11.8787 22.91C11.5657 22.739 4.19271 18.675 2.39571 13.081L2.39471 13.08C1.26671 9.558 2.52271 5.132 6.57771 3.825C8.48171 3.209 10.5567 3.48 12.2347 4.539ZM7.03771 5.253C3.75671 6.311 2.93271 9.84 3.82371 12.623C5.22571 16.985 10.7647 20.512 12.2367 21.385C13.7137 20.503 19.2927 16.937 20.6497 12.627C21.5407 9.841 20.7137 6.312 17.4277 5.253C15.8357 4.742 13.9787 5.053 12.6967 6.045C12.4287 6.251 12.0567 6.255 11.7867 6.051C10.4287 5.03 8.65471 4.731 7.03771 5.253ZM16.4677 7.2389C17.8307 7.6799 18.7857 8.8869 18.9027 10.3139C18.9357 10.7269 18.6287 11.0889 18.2157 11.1219C18.1947 11.1239 18.1747 11.1249 18.1537 11.1249C17.7667 11.1249 17.4387 10.8279 17.4067 10.4359C17.3407 9.6139 16.7907 8.9199 16.0077 8.6669C15.6127 8.5389 15.3967 8.1159 15.5237 7.7229C15.6527 7.3289 16.0717 7.1149 16.4677 7.2389Z" fill="#252323"/>
</svg>
