<svg width="32" height="32" viewBox="0 0 32 32" fill="none" xmlns="http://www.w3.org/2000/svg">
<circle cx="16" cy="16" r="15.6" fill="white" stroke="#DBDBDB" stroke-width="0.8"/>
<path fill-rule="evenodd" clip-rule="evenodd" d="M16.1566 11.1927C17.2406 10.5074 18.6806 10.3181 19.9246 10.7167C22.6306 11.5894 23.4706 14.5394 22.7192 16.8867C21.5599 20.5734 16.6086 23.3234 16.3986 23.4387C16.3239 23.4801 16.2412 23.5007 16.1586 23.5007C16.0759 23.5007 15.9939 23.4807 15.9192 23.4401C15.7106 23.3261 10.7952 20.6167 9.59722 16.8874L9.59656 16.8867C8.84456 14.5387 9.68189 11.5881 12.3852 10.7167C13.6546 10.3061 15.0379 10.4867 16.1566 11.1927ZM12.6919 11.6687C10.5046 12.3741 9.95522 14.7267 10.5492 16.5821C11.4839 19.4901 15.1766 21.8414 16.1579 22.4234C17.1426 21.8354 20.8619 19.4581 21.7666 16.5847C22.3606 14.7274 21.8092 12.3747 19.6186 11.6687C18.5572 11.3281 17.3192 11.5354 16.4646 12.1967C16.2859 12.3341 16.0379 12.3367 15.8579 12.2007C14.9526 11.5201 13.7699 11.3207 12.6919 11.6687ZM18.9786 12.9927C19.8872 13.2867 20.5239 14.0913 20.6019 15.0427C20.6239 15.318 20.4192 15.5593 20.1439 15.5813C20.1299 15.5827 20.1166 15.5833 20.1026 15.5833C19.8446 15.5833 19.6259 15.3853 19.6046 15.124C19.5606 14.576 19.1939 14.1133 18.6719 13.9447C18.4086 13.8593 18.2646 13.5773 18.3492 13.3153C18.4352 13.0527 18.7146 12.91 18.9786 12.9927Z" fill="#252323"/>
</svg>
