<svg width="45" height="45" viewBox="0 0 45 45" fill="none" xmlns="http://www.w3.org/2000/svg">
<rect width="45" height="45" rx="22.5" fill="#7C48C3"/>
<path d="M22.0911 26.1819C23.8986 26.1819 25.3638 24.7167 25.3638 22.9092C25.3638 21.1017 23.8986 19.6365 22.0911 19.6365C20.2836 19.6365 18.8184 21.1017 18.8184 22.9092C18.8184 24.7167 20.2836 26.1819 22.0911 26.1819Z" fill="white"/>
<path d="M22.9092 16.4201V14.7273H21.2728V16.4201C19.8331 16.6039 18.4951 17.2605 17.4687 18.2869C16.4424 19.3132 15.7858 20.6512 15.602 22.0909H13.9092V23.7273H15.602C15.7856 25.1672 16.4421 26.5053 17.4684 27.5317C18.4948 28.5581 19.833 29.2146 21.2728 29.3981V31.0909H22.9092V29.3981C24.3491 29.2147 25.6873 28.5582 26.7137 27.5318C27.7401 26.5054 28.3966 25.1672 28.58 23.7273H30.2728V22.0909H28.58C28.3964 20.6511 27.7399 19.3129 26.7136 18.2865C25.6872 17.2602 24.349 16.6037 22.9092 16.4201ZM22.091 27.8182C19.3836 27.8182 17.1819 25.6165 17.1819 22.9091C17.1819 20.2017 19.3836 18 22.091 18C24.7984 18 27.0001 20.2017 27.0001 22.9091C27.0001 25.6165 24.7984 27.8182 22.091 27.8182Z" fill="white"/>
</svg>
