<svg width="60" height="60" viewBox="0 0 60 60" fill="none" xmlns="http://www.w3.org/2000/svg">
<circle cx="30" cy="30" r="30" fill="#7C48C3"/>
<g clip-path="url(#clip0_76_1003)">
<path d="M25.75 13C18.7184 13 13 18.7184 13 25.75C13 34.5879 24.509 46.1989 24.9977 46.6898C25.1977 46.8885 25.4681 47 25.75 47C26.0319 47 26.3023 46.8885 26.5023 46.6898C26.6468 46.5452 27.773 45.4041 29.269 43.6659C28.4062 42.1295 27.875 40.3849 27.875 38.5C27.875 32.7094 32.5117 28.0216 38.2726 27.8984C38.4065 27.1695 38.5 26.4491 38.5 25.75C38.5 18.7184 32.7816 13 25.75 13ZM25.75 32.125C22.2352 32.125 19.375 29.2647 19.375 25.75C19.375 22.2352 22.2352 19.375 25.75 19.375C29.2647 19.375 32.125 22.2352 32.125 25.75C32.125 29.2647 29.2647 32.125 25.75 32.125Z" fill="white"/>
<path d="M38.5 30C33.8059 30 30 33.8059 30 38.5C30 43.1941 33.8059 47 38.5 47C43.1941 47 47 43.1941 47 38.5C47 33.8059 43.1941 30 38.5 30ZM41.6875 39.5625H39.5625V41.6875C39.5625 42.274 39.0865 42.75 38.5 42.75C37.9135 42.75 37.4375 42.274 37.4375 41.6875V39.5625H35.3125C34.726 39.5625 34.25 39.0865 34.25 38.5C34.25 37.9135 34.726 37.4375 35.3125 37.4375H37.4375V35.3125C37.4375 34.726 37.9135 34.25 38.5 34.25C39.0865 34.25 39.5625 34.726 39.5625 35.3125V37.4375H41.6875C42.274 37.4375 42.75 37.9135 42.75 38.5C42.75 39.0865 42.274 39.5625 41.6875 39.5625Z" fill="white"/>
</g>
<defs>
<clipPath id="clip0_76_1003">
<rect width="34" height="34" fill="white" transform="translate(13 13)"/>
</clipPath>
</defs>
</svg>
