<svg width="21" height="21" viewBox="0 0 21 21" fill="none" xmlns="http://www.w3.org/2000/svg">
<path d="M10.5798 1.85254C14.4654 1.85254 17.6686 4.95078 17.6686 8.784C17.6686 10.7156 16.9661 12.5089 15.8099 14.0289C14.5343 15.7055 12.9621 17.1663 11.1924 18.3129C10.7874 18.5779 10.4218 18.5979 9.97733 18.3129C8.19757 17.1663 6.62536 15.7055 5.3607 14.0289C4.20361 12.5089 3.50195 10.7156 3.50195 8.784C3.50195 4.95078 6.70519 1.85254 10.5798 1.85254ZM10.5798 6.66657C9.295 6.66657 8.24714 7.7257 8.24714 8.99983C8.24714 10.284 9.295 11.2939 10.5798 11.2939C11.8655 11.2939 12.9234 10.284 12.9234 8.99983C12.9234 7.7257 11.8655 6.66657 10.5798 6.66657Z" fill="black"/>
</svg>
