<svg width="70" height="70" viewBox="0 0 70 70" fill="none" xmlns="http://www.w3.org/2000/svg">
<g filter="url(#filter0_d_93_3221)">
<rect x="10" y="10" width="50" height="50" rx="25" fill="white"/>
</g>
<path d="M30.5 27.5C30.5 26.3065 30.9741 25.1619 31.818 24.318C32.6619 23.4741 33.8065 23 35 23C36.1935 23 37.3381 23.4741 38.182 24.318C39.0259 25.1619 39.5 26.3065 39.5 27.5V35C39.5 36.1935 39.0259 37.3381 38.182 38.182C37.3381 39.0259 36.1935 39.5 35 39.5C33.8065 39.5 32.6619 39.0259 31.818 38.182C30.9741 37.3381 30.5 36.1935 30.5 35V27.5Z" fill="#7C48C3"/>
<path d="M28.25 32.75C28.4489 32.75 28.6397 32.829 28.7803 32.9697C28.921 33.1103 29 33.3011 29 33.5V35C29 36.5913 29.6321 38.1174 30.7574 39.2426C31.8826 40.3679 33.4087 41 35 41C36.5913 41 38.1174 40.3679 39.2426 39.2426C40.3679 38.1174 41 36.5913 41 35V33.5C41 33.3011 41.079 33.1103 41.2197 32.9697C41.3603 32.829 41.5511 32.75 41.75 32.75C41.9489 32.75 42.1397 32.829 42.2803 32.9697C42.421 33.1103 42.5 33.3011 42.5 33.5V35C42.5 36.8593 41.8094 38.6523 40.5622 40.0312C39.3149 41.4101 37.6 42.2766 35.75 42.4625V45.5H40.25C40.4489 45.5 40.6397 45.579 40.7803 45.7197C40.921 45.8603 41 46.0511 41 46.25C41 46.4489 40.921 46.6397 40.7803 46.7803C40.6397 46.921 40.4489 47 40.25 47H29.75C29.5511 47 29.3603 46.921 29.2197 46.7803C29.079 46.6397 29 46.4489 29 46.25C29 46.0511 29.079 45.8603 29.2197 45.7197C29.3603 45.579 29.5511 45.5 29.75 45.5H34.25V42.4625C32.4 42.2766 30.6851 41.4101 29.4378 40.0312C28.1906 38.6523 27.5 36.8593 27.5 35V33.5C27.5 33.3011 27.579 33.1103 27.7197 32.9697C27.8603 32.829 28.0511 32.75 28.25 32.75Z" fill="#7C48C3"/>
<defs>
<filter id="filter0_d_93_3221" x="0" y="0" width="70" height="70" filterUnits="userSpaceOnUse" color-interpolation-filters="sRGB">
<feFlood flood-opacity="0" result="BackgroundImageFix"/>
<feColorMatrix in="SourceAlpha" type="matrix" values="0 0 0 0 0 0 0 0 0 0 0 0 0 0 0 0 0 0 127 0" result="hardAlpha"/>
<feOffset/>
<feGaussianBlur stdDeviation="5"/>
<feComposite in2="hardAlpha" operator="out"/>
<feColorMatrix type="matrix" values="0 0 0 0 0.486275 0 0 0 0 0.282353 0 0 0 0 0.764706 0 0 0 0.1 0"/>
<feBlend mode="normal" in2="BackgroundImageFix" result="effect1_dropShadow_93_3221"/>
<feBlend mode="normal" in="SourceGraphic" in2="effect1_dropShadow_93_3221" result="shape"/>
</filter>
</defs>
</svg>
