<svg width="24" height="25" viewBox="0 0 24 25" fill="none" xmlns="http://www.w3.org/2000/svg">
<path d="M8.27977 3.0007C8.90977 3.01986 9.51977 3.12986 10.1108 3.33086H10.1698C10.2098 3.34986 10.2398 3.37086 10.2598 3.38986C10.4808 3.46086 10.6898 3.54086 10.8898 3.65086L11.2698 3.82086C11.4198 3.90086 11.5998 4.04986 11.6998 4.11086C11.7998 4.16986 11.9098 4.23086 11.9998 4.29986C13.1108 3.45086 14.4598 2.99086 15.8498 3.0007C16.4808 3.0007 17.1108 3.08986 17.7098 3.29086C21.4008 4.49086 22.7308 8.54086 21.6198 12.0809C20.9898 13.8899 19.9598 15.5409 18.6108 16.8899C16.6798 18.7599 14.5608 20.4199 12.2798 21.8499L12.0298 22.0009L11.7698 21.8399C9.48077 20.4199 7.34977 18.7599 5.40077 16.8799C4.06077 15.5309 3.02977 13.8899 2.38977 12.0809C1.25977 8.54086 2.58977 4.49086 6.32077 3.26986C6.61077 3.16986 6.90977 3.09986 7.20977 3.06086H7.32977C7.61077 3.01986 7.88977 3.0007 8.16977 3.0007H8.27977ZM17.1898 6.16086C16.7798 6.01986 16.3298 6.24086 16.1798 6.66086C16.0398 7.08086 16.2598 7.54086 16.6798 7.68986C17.3208 7.92986 17.7498 8.56086 17.7498 9.25986V9.29086C17.7308 9.51986 17.7998 9.74086 17.9398 9.91086C18.0798 10.0809 18.2898 10.1799 18.5098 10.2009C18.9198 10.1899 19.2698 9.86086 19.2998 9.43986V9.32086C19.3298 7.91986 18.4808 6.65086 17.1898 6.16086Z" fill="#FF0000"/>
</svg>
