<svg width="75" height="75" viewBox="0 0 75 75" fill="none" xmlns="http://www.w3.org/2000/svg">
<g filter="url(#filter0_d_112_1739)">
<circle cx="37.5" cy="35.5" r="27.0833" fill="white" stroke="#E1E4E8" stroke-width="0.833333"/>
<path d="M33.7798 26.5006C34.4098 26.5198 35.0198 26.6298 35.6108 26.8308H35.6698C35.7098 26.8498 35.7398 26.8708 35.7598 26.8898C35.9808 26.9608 36.1898 27.0408 36.3898 27.1508L36.7698 27.3208C36.9198 27.4008 37.0998 27.5498 37.1998 27.6108C37.2998 27.6698 37.4098 27.7308 37.4998 27.7998C38.6108 26.9508 39.9598 26.4908 41.3498 26.5006C41.9808 26.5006 42.6108 26.5898 43.2098 26.7908C46.9008 27.9908 48.2308 32.0408 47.1198 35.5808C46.4898 37.3898 45.4598 39.0408 44.1108 40.3898C42.1798 42.2598 40.0608 43.9198 37.7798 45.3498L37.5298 45.5008L37.2698 45.3398C34.9808 43.9198 32.8498 42.2598 30.9008 40.3798C29.5608 39.0308 28.5298 37.3898 27.8898 35.5808C26.7598 32.0408 28.0898 27.9908 31.8208 26.7698C32.1108 26.6698 32.4098 26.5998 32.7098 26.5608H32.8298C33.1108 26.5198 33.3898 26.5006 33.6698 26.5006H33.7798ZM42.6898 29.6608C42.2798 29.5198 41.8298 29.7408 41.6798 30.1608C41.5398 30.5808 41.7598 31.0408 42.1798 31.1898C42.8208 31.4298 43.2498 32.0608 43.2498 32.7598V32.7908C43.2308 33.0198 43.2998 33.2408 43.4398 33.4108C43.5798 33.5808 43.7898 33.6798 44.0098 33.7008C44.4198 33.6898 44.7698 33.3608 44.7998 32.9398V32.8208C44.8298 31.4198 43.9808 30.1508 42.6898 29.6608Z" fill="#FF0000"/>
</g>
<defs>
<filter id="filter0_d_112_1739" x="0" y="0" width="75" height="75" filterUnits="userSpaceOnUse" color-interpolation-filters="sRGB">
<feFlood flood-opacity="0" result="BackgroundImageFix"/>
<feColorMatrix in="SourceAlpha" type="matrix" values="0 0 0 0 0 0 0 0 0 0 0 0 0 0 0 0 0 0 127 0" result="hardAlpha"/>
<feOffset dy="2"/>
<feGaussianBlur stdDeviation="5"/>
<feComposite in2="hardAlpha" operator="out"/>
<feColorMatrix type="matrix" values="0 0 0 0 0 0 0 0 0 0 0 0 0 0 0 0 0 0 0.1 0"/>
<feBlend mode="normal" in2="BackgroundImageFix" result="effect1_dropShadow_112_1739"/>
<feBlend mode="normal" in="SourceGraphic" in2="effect1_dropShadow_112_1739" result="shape"/>
</filter>
</defs>
</svg>
