<svg width="32" height="32" viewBox="0 0 32 32" fill="none" xmlns="http://www.w3.org/2000/svg">
<circle cx="16" cy="16" r="15.5" fill="white" stroke="white"/>
<path d="M21.2631 11.1724C20.9296 10.8302 20.4361 10.7026 19.9759 10.8369L9.24482 13.9574C8.75928 14.0923 8.41514 14.4795 8.32244 14.9715C8.22773 15.4721 8.55854 16.1076 8.99071 16.3734L12.3461 18.4356C12.6902 18.647 13.1344 18.594 13.4192 18.3068L17.2614 14.4406C17.4548 14.2393 17.775 14.2393 17.9684 14.4406C18.1618 14.6352 18.1618 14.9507 17.9684 15.152L14.1195 19.0188C13.834 19.3054 13.7807 19.7516 13.9908 20.0979L16.0409 23.4869C16.281 23.8896 16.6945 24.1178 17.1481 24.1178C17.2014 24.1178 17.2614 24.1178 17.3148 24.111C17.835 24.0439 18.2485 23.6883 18.4019 23.1849L21.5832 12.4676C21.7233 12.0113 21.5965 11.5147 21.2631 11.1724Z" fill="#7C48C3"/>
</svg>
