<svg width="32" height="32" viewBox="0 0 32 32" fill="none" xmlns="http://www.w3.org/2000/svg">
<path fill-rule="evenodd" clip-rule="evenodd" d="M27.7422 10.1647L26.9123 8.72462C26.2102 7.50605 24.6543 7.08568 23.434 7.78487C22.8532 8.12704 22.1601 8.22412 21.5076 8.0547C20.8551 7.88528 20.2968 7.46327 19.9558 6.88175C19.7364 6.51212 19.6185 6.09111 19.614 5.66131C19.6338 4.97221 19.3739 4.30446 18.8933 3.81014C18.4128 3.31583 17.7527 3.03707 17.0633 3.03735H15.3913C14.7159 3.03735 14.0684 3.30647 13.592 3.78518C13.1156 4.26389 12.8495 4.91271 12.8528 5.58808C12.8328 6.98249 11.6966 8.10233 10.3021 8.10219C9.87226 8.09773 9.45126 7.97984 9.08163 7.76047C7.8614 7.06127 6.30546 7.48164 5.60336 8.70021L4.71244 10.1647C4.01119 11.3818 4.42585 12.9367 5.63998 13.643C6.42918 14.0986 6.91535 14.9407 6.91535 15.852C6.91535 16.7633 6.42918 17.6054 5.63998 18.061C4.42739 18.7625 4.01228 20.3137 4.71244 21.5271L5.55455 22.9794C5.88351 23.573 6.43545 24.011 7.08824 24.1965C7.74102 24.382 8.44083 24.2998 9.03281 23.9679C9.61475 23.6284 10.3082 23.5353 10.9591 23.7095C11.61 23.8837 12.1643 24.3106 12.4989 24.8955C12.7182 25.2651 12.8361 25.6861 12.8406 26.1159C12.8406 27.5246 13.9826 28.6666 15.3913 28.6666H17.0633C18.4673 28.6666 19.6073 27.5321 19.614 26.1281C19.6108 25.4506 19.8785 24.7999 20.3575 24.3209C20.8366 23.8418 21.4873 23.5741 22.1648 23.5774C22.5935 23.5889 23.0128 23.7063 23.3852 23.9191C24.6022 24.6204 26.1572 24.2057 26.8635 22.9916L27.7422 21.5271C28.0823 20.9432 28.1757 20.2479 28.0016 19.5951C27.8275 18.9422 27.4003 18.3857 26.8147 18.0488C26.229 17.7119 25.8018 17.1554 25.6277 16.5025C25.4536 15.8497 25.547 15.1543 25.8871 14.5705C26.1083 14.1844 26.4285 13.8642 26.8147 13.643C28.0215 12.9371 28.4352 11.3912 27.7422 10.1769V10.1647Z" stroke="#A7A7A7" stroke-width="2" stroke-linecap="round" stroke-linejoin="round"/>
<path d="M16.2334 19.3669C18.1746 19.3669 19.7483 17.7932 19.7483 15.852C19.7483 13.9108 18.1746 12.3372 16.2334 12.3372C14.2922 12.3372 12.7185 13.9108 12.7185 15.852C12.7185 17.7932 14.2922 19.3669 16.2334 19.3669Z" stroke="#A7A7A7" stroke-width="2" stroke-linecap="round" stroke-linejoin="round"/>
</svg>
