<svg width="160" height="160" viewBox="0 0 160 160" fill="none" xmlns="http://www.w3.org/2000/svg">
<circle cx="80" cy="80" r="80" fill="#7C48C3" fill-opacity="0.3"/>
<circle cx="80" cy="80" r="70" fill="#7C48C3" fill-opacity="0.5"/>
<circle cx="80" cy="80" r="60" fill="#7C48C3"/>
<path d="M74.7109 106.727H74.6813C74.4899 106.723 74.3012 106.68 74.1267 106.601C73.9521 106.523 73.7953 106.41 73.6656 106.269L46.875 77.1375C46.6522 76.8953 46.5204 76.5833 46.5022 76.2547C46.4839 75.9261 46.5804 75.6013 46.775 75.336C46.9697 75.0706 47.2504 74.8811 47.5693 74.7996C47.8881 74.7181 48.2253 74.7497 48.5234 74.8891L73.0438 86.3703C73.25 86.4672 73.4938 86.4203 73.6516 86.2563L111.055 47.1641C111.561 46.6344 112.389 46.5766 112.964 47.0328C113.539 47.4891 113.672 48.3078 113.27 48.9219L76.0641 105.919C76.011 106.002 75.9485 106.077 75.8797 106.147L75.7156 106.311C75.4486 106.577 75.0875 106.726 74.7109 106.727Z" fill="white"/>
</svg>
