<svg width="32" height="32" viewBox="0 0 32 32" fill="none" xmlns="http://www.w3.org/2000/svg">
<g clip-path="url(#clip0_239_6596)">
<path d="M26.6667 2.6665H12.4445V7.11095H14.2223V4.44428H26.6667C27.2001 4.44428 27.5556 4.79984 27.5556 5.33317V15.1109C27.5556 15.6443 27.2001 15.9998 26.6667 15.9998H15.1112V22.2221H10.4001L7.11117 24.7998V22.2221H4.4445C3.91117 22.2221 3.55561 21.8665 3.55561 21.3332V11.5554C3.55561 11.0221 3.91117 10.6665 4.4445 10.6665H16.0001V8.88873H4.4445C2.93339 8.88873 1.77783 10.0443 1.77783 11.5554V21.3332C1.77783 22.8443 2.93339 23.9998 4.4445 23.9998H5.33339V28.5332L10.9334 23.9998H16.8889V17.7776H26.6667C28.1778 17.7776 29.3334 16.6221 29.3334 15.1109V5.33317C29.3334 3.82206 28.1778 2.6665 26.6667 2.6665Z" fill="#666666"/>
<path d="M5.51111 20.3554H7.64444L8.17778 18.9332H10.9333L11.4667 20.3554H13.6L10.5778 12.4443H8.44444L5.51111 20.3554ZM9.51111 14.6666L10.4 17.4221H8.62222L9.51111 14.6666Z" fill="#666666"/>
<path d="M17.7778 15.1113C18.7556 15.1113 20.0889 14.8446 21.3334 14.2224C22.5778 14.8446 24.0001 15.1113 24.8889 15.1113V13.3335C24.8889 13.3335 24.0001 13.3335 23.0223 12.9779C24.0889 11.9113 24.8889 10.3113 24.8889 8.00016V7.11127H22.2223V5.3335H20.4445V7.11127H17.7778V8.88905H23.0223C22.8445 10.4891 22.1334 11.4668 21.3334 12.0891C20.8001 11.6446 20.2667 11.0224 19.9112 10.2224H18.0445C18.4001 11.3779 18.9334 12.2668 19.6445 12.9779C18.7556 13.3335 17.9556 13.3335 17.7778 13.3335V15.1113Z" fill="#666666"/>
</g>
<defs>
<clipPath id="clip0_239_6596">
<rect width="32" height="32" fill="white"/>
</clipPath>
</defs>
</svg>
