<svg width="32" height="32" viewBox="0 0 32 32" fill="none" xmlns="http://www.w3.org/2000/svg">
<path fill-rule="evenodd" clip-rule="evenodd" d="M13.1688 20.2751C8.04347 20.2751 3.66614 21.0498 3.66614 24.1538C3.66614 27.2578 8.0168 28.0605 13.1688 28.0605C18.2955 28.0605 22.6715 27.2845 22.6715 24.1818C22.6715 21.0791 18.3221 20.2751 13.1688 20.2751Z" stroke="#A7A7A7" stroke-width="2" stroke-linecap="round" stroke-linejoin="round"/>
<path fill-rule="evenodd" clip-rule="evenodd" d="M13.1688 15.8481C16.5328 15.8481 19.2595 13.1214 19.2595 9.75741C19.2595 6.39341 16.5328 3.66675 13.1688 3.66675C9.80613 3.66675 7.07943 6.39341 7.07943 9.75741C7.06747 13.1094 9.77413 15.8361 13.1275 15.8481H13.1688Z" stroke="#A7A7A7" stroke-width="2" stroke-linecap="round" stroke-linejoin="round"/>
<path d="M25.6049 11.5588V16.9055" stroke="#A7A7A7" stroke-width="2" stroke-linecap="round" stroke-linejoin="round"/>
<path d="M28.3328 14.2322H22.8794" stroke="#A7A7A7" stroke-width="2" stroke-linecap="round" stroke-linejoin="round"/>
</svg>
