<svg width="75" height="75" viewBox="0 0 75 75" fill="none" xmlns="http://www.w3.org/2000/svg">
<g filter="url(#filter0_d_112_3620)">
<circle cx="37.5" cy="35.5" r="27.0833" fill="white" stroke="#E1E4E8" stroke-width="0.833333"/>
<path fill-rule="evenodd" clip-rule="evenodd" d="M38.2347 28.0391C39.8607 27.0111 42.0207 26.7271 43.8867 27.3251C47.9457 28.6341 49.2057 33.0591 48.0787 36.5801C46.3397 42.1101 38.9127 46.2351 38.5977 46.4081C38.4857 46.4701 38.3617 46.5011 38.2377 46.5011C38.1137 46.5011 37.9907 46.4711 37.8787 46.4101C37.5657 46.2391 30.1927 42.1751 28.3957 36.5811L28.3947 36.5801C27.2667 33.0581 28.5227 28.6321 32.5777 27.3251C34.4817 26.7091 36.5567 26.9801 38.2347 28.0391ZM33.0377 28.7531C29.7567 29.8111 28.9327 33.3401 29.8237 36.1231C31.2257 40.4851 36.7647 44.0121 38.2367 44.8851C39.7137 44.0031 45.2927 40.4371 46.6497 36.1271C47.5407 33.3411 46.7137 29.8121 43.4277 28.7531C41.8357 28.2421 39.9787 28.5531 38.6967 29.5451C38.4287 29.7511 38.0567 29.7551 37.7867 29.5511C36.4287 28.5301 34.6547 28.2311 33.0377 28.7531ZM42.4677 30.739C43.8307 31.18 44.7857 32.387 44.9027 33.814C44.9357 34.227 44.6287 34.589 44.2157 34.622C44.1947 34.624 44.1747 34.625 44.1537 34.625C43.7667 34.625 43.4387 34.328 43.4067 33.936C43.3407 33.114 42.7907 32.42 42.0077 32.167C41.6127 32.039 41.3967 31.616 41.5237 31.223C41.6527 30.829 42.0717 30.615 42.4677 30.739Z" fill="#252323"/>
</g>
<defs>
<filter id="filter0_d_112_3620" x="0" y="0" width="75" height="75" filterUnits="userSpaceOnUse" color-interpolation-filters="sRGB">
<feFlood flood-opacity="0" result="BackgroundImageFix"/>
<feColorMatrix in="SourceAlpha" type="matrix" values="0 0 0 0 0 0 0 0 0 0 0 0 0 0 0 0 0 0 127 0" result="hardAlpha"/>
<feOffset dy="2"/>
<feGaussianBlur stdDeviation="5"/>
<feComposite in2="hardAlpha" operator="out"/>
<feColorMatrix type="matrix" values="0 0 0 0 0 0 0 0 0 0 0 0 0 0 0 0 0 0 0.1 0"/>
<feBlend mode="normal" in2="BackgroundImageFix" result="effect1_dropShadow_112_3620"/>
<feBlend mode="normal" in="SourceGraphic" in2="effect1_dropShadow_112_3620" result="shape"/>
</filter>
</defs>
</svg>
