<svg width="30" height="30" viewBox="0 0 30 30" fill="none" xmlns="http://www.w3.org/2000/svg">
<g clip-path="url(#clip0_113_3964)">
<path d="M15 0C6.7212 0 0 6.7212 0 15C0 23.2788 6.7212 30 15 30C23.2638 30 29.9733 23.3028 29.9976 15.0444C29.9991 15.0296 29.9999 15.0148 30 15C30 14.9867 29.9994 14.9734 29.9982 14.9601C29.9766 6.6996 23.2656 0 15 0ZM14.904 0.9024C15.1836 0.9282 15.4626 0.9624 15.7389 1.0161C15.759 1.6773 15.9066 2.9127 14.6145 2.8689C13.5513 2.9283 12.5424 5.3439 11.9445 3.6006C12.0141 2.7066 13.5528 0.9048 11.694 1.5597C11.2983 2.1309 11.4012 3.1926 10.668 3.0675C10.4076 4.0083 9.6741 3.4476 9.5286 3.0399C9.1761 3.2463 9.7899 3.7755 9.3954 4.0575C10.536 3.2907 9.4893 5.0169 10.1415 5.4609C9.5187 6.0591 10.6326 7.5888 9.3189 7.2018C8.1084 7.0089 10.26 5.6733 8.7774 6.3108C7.8456 6.5199 7.8954 7.0518 8.5929 7.1919C7.9671 7.7793 7.1691 7.8114 6.798 7.5468C5.8476 8.1531 4.9404 8.9028 4.1583 9.7833C3.0093 9.8373 3.2682 12.1668 2.7153 11.9298C2.6547 11.2158 2.8983 10.0638 2.1651 10.2306C1.9803 10.1694 1.812 10.2507 1.6659 10.4127C3.558 4.9047 8.76 0.9435 14.904 0.9024ZM16.9365 1.0353C17.13 1.062 17.322 1.0929 17.5131 1.1274C17.7675 1.2252 17.9331 1.3569 17.5482 1.4046L17.2413 1.3002C16.9824 1.1517 16.9089 1.071 16.9365 1.0353ZM20.2245 1.9023C25.4259 3.9774 29.1 9.0546 29.1 15C29.1 18.9258 27.498 22.473 24.9129 25.0284C25.2081 24.2235 25.3629 23.3274 25.9143 22.653C26.2659 21.4395 25.0233 20.5725 25.7361 19.4502C25.1178 19.5246 24.0225 18.7872 23.3385 19.7931C22.5567 19.8033 21.7995 20.6997 21.0726 20.2317C20.1072 19.6587 18.9996 18.9885 18.726 17.8179C18.8436 16.905 18.5631 15.735 18.6498 14.8887C19.0818 13.4244 20.2449 12.5445 20.4858 11.097C20.5848 11.0097 21.4284 10.3515 21.4635 10.3242C22.4901 10.0587 23.8863 8.4108 24.4995 10.0629C24.7086 10.2144 26.1063 10.9188 25.9806 10.3629C26.0145 9.4944 28.3308 9.9654 27.1413 8.8296C27.018 8.7567 26.5491 8.6202 26.2383 8.7069C26.1105 8.7375 25.5603 9.3459 25.0911 8.5284C24.3687 7.8555 25.0521 10.3317 24.0825 9.0516C25.0797 8.7201 22.8162 7.5615 23.3496 8.2356C24.132 9.5646 22.6734 8.6919 22.9377 7.7754C21.6756 7.6206 22.2879 9.9903 21.1038 10.3548C21.1116 10.356 21.1203 10.3542 21.1284 10.3554L20.922 10.3824L20.6034 10.4115C20.3112 10.1139 19.4598 10.0764 19.7121 9.2151C19.1751 8.2851 19.7076 7.9305 20.6577 8.0181C21.6162 7.4043 18.6642 6.6696 20.5605 6.3492C19.7304 6.4026 19.3833 6.4341 19.2756 5.4102C19.4082 6.6804 17.7669 5.8872 18.6468 5.1315C18.9822 4.9065 17.8758 4.4466 18.8058 4.2897C19.4277 4.2567 20.6535 6.7767 20.8782 5.2653C21.3006 5.1297 20.4834 4.3209 20.679 4.278C19.578 4.6287 19.257 2.6961 19.248 1.9728C19.6128 1.9872 19.9818 1.9572 20.2242 1.9026M10.0134 2.3904C9.9342 2.4 9.7866 2.4702 9.5535 2.637C9.2619 2.7624 8.679 3.5331 9.363 2.9628C9.876 2.8776 10.251 2.3613 10.0134 2.3904ZM20.5044 2.7678C20.3619 2.7789 20.8266 3.153 20.6064 2.7882C20.5575 2.7717 20.5251 2.766 20.5044 2.7678ZM8.4285 2.9394C8.307 2.9304 8.1279 2.9847 7.8777 3.1314C7.0596 3.201 7.0167 4.9998 7.0404 4.8918C7.2825 4.7304 7.4964 4.2363 7.8096 4.2654C8.394 4.2048 8.9544 2.9775 8.4285 2.9394ZM15.9999 2.9724C16.59 2.9475 17.5158 3.4179 16.2348 3.5769C16.0269 3.5757 15.7986 3.5391 15.642 3.3882C15.5325 3.0966 15.7317 2.9832 15.9999 2.9721M20.5374 3.2061C20.2914 3.1839 21.4737 4.0164 20.9745 3.3867C20.7273 3.2619 20.5941 3.2112 20.5374 3.2061ZM18.0705 3.669C18.1413 3.6378 18.2709 4.0362 18.036 3.7725C18.0408 3.7065 18.0543 3.6759 18.0705 3.669ZM18.9777 3.8868C19.0347 3.9024 19.2477 4.3422 18.9951 4.0548C18.9567 3.9234 18.9585 3.8817 18.9777 3.8868ZM21.5457 3.8898C21.4221 3.8904 21.4317 4.02 21.8049 4.3503C21.9138 4.8495 21.6555 5.0904 22.2129 4.6398C22.3299 4.248 21.7521 3.8889 21.5457 3.8898ZM5.286 5.712C5.1096 5.6913 5.2656 6.4974 5.4648 5.886C5.385 5.7657 5.3268 5.7168 5.286 5.712ZM8.0715 6.0666C7.9605 6.0651 8.0637 6.3276 8.2584 6.1806C8.1693 6.0966 8.1084 6.0669 8.0715 6.0666ZM25.1385 6.1746C24.9096 6.201 25.6449 7.7406 25.8207 7.0392C26.7531 6.8958 25.6785 6.1017 25.4703 6.444C25.2963 6.243 25.1916 6.168 25.1388 6.1743M5.3079 6.456C5.1714 6.4863 5.0889 7.323 5.3688 6.4992C5.3478 6.4632 5.3274 6.4515 5.3079 6.456ZM23.4534 7.3026C23.4066 7.3167 23.5146 7.437 23.9064 7.7292C24.0465 7.6872 24.7383 8.3316 24.5766 7.9698C24.3126 7.7076 23.6508 7.3308 23.4825 7.3032C23.4729 7.30099 23.463 7.30078 23.4534 7.3026ZM4.9629 7.3095C4.8147 7.2795 4.5252 7.7844 5.0313 7.4325C5.0238 7.3515 4.9971 7.3164 4.9629 7.3095ZM25.476 7.98C25.398 8.013 25.7571 8.5218 25.7298 8.1552C25.5762 8.0106 25.5018 7.9689 25.476 7.98ZM22.3938 8.6742C22.5804 8.6451 22.4691 9.5034 22.1061 9.0798C22.2363 8.7924 22.3314 8.6838 22.3938 8.6742ZM26.2152 8.9766C26.4183 8.9502 26.5932 9.5268 26.0289 9.2577C26.0763 9.0615 26.1477 8.9853 26.2152 8.9766ZM15.2529 9.8106C15.4725 9.8298 15.432 10.1847 14.9538 9.9375C15.078 9.8346 15.18 9.804 15.2532 9.8103M15.915 10.0356C16.0044 10.0692 15.8286 10.3905 15.7245 10.1301C15.8256 10.0452 15.8853 10.0245 15.915 10.0356ZM18.297 11.559C18.4215 11.529 18.366 11.976 18.1815 11.6709C18.2301 11.5983 18.2679 11.5659 18.2967 11.559M3.2466 11.6874C3.3288 11.6865 3.5118 12.2994 3.219 11.9511C3.2028 11.7561 3.219 11.6877 3.2466 11.6874ZM3.0837 12.1824C3.1662 12.1965 3.1257 12.9816 2.9607 12.5013C3.0153 12.2592 3.0564 12.1779 3.0837 12.1824ZM1.6359 12.4239C1.8054 12.5178 1.3299 13.7592 1.5099 14.0622C2.0898 14.9445 1.1295 16.5204 2.502 16.8243C2.988 15.8823 3.4398 16.7373 3.5478 16.6233C3.9948 16.5444 4.3131 17.6484 5.1153 17.4993C6.0447 17.4015 5.5848 19.2285 6.8523 19.4307C8.4003 19.8792 8.2404 21.9537 9.9453 22.2117C10.9533 22.8018 13.7769 23.0598 12.8925 24.681C11.5719 25.2252 12.4185 27.6309 10.4745 27.1608C10.0461 27.2844 9.8604 27.7158 9.5421 28.0053C7.78281 27.2651 6.19201 26.1756 4.866 24.8028C4.1049 23.6343 3.018 22.6941 2.523 21.3522C1.4817 20.0214 2.3277 18.5916 2.1195 17.2038C2.0583 16.4688 1.8774 17.6427 1.632 16.7103C1.2612 15.9498 1.1325 14.9448 0.9324 14.0793C0.9666 13.5501 1.0311 13.0293 1.1217 12.5175C1.1379 12.6276 1.1643 12.7215 1.2033 12.7905C1.4511 12.4893 1.5792 12.393 1.6356 12.4245M2.2455 12.4365C2.3289 12.4449 2.4456 12.4755 2.6043 12.5334C2.901 13.3656 3.7086 13.6362 3.4803 14.0031C4.0626 14.2356 4.9113 15.3399 3.5382 14.8455C2.6262 14.478 3.8556 14.1486 2.7771 13.8576C2.7348 13.4046 1.6632 12.3759 2.2455 12.4362M19.2564 12.6657C19.3929 12.6657 19.5003 13.2165 19.0977 13.1196C19.1265 12.7794 19.1943 12.6657 19.2564 12.6657ZM3.3792 12.9105C3.4389 12.9258 3.5343 13.0905 3.4782 13.2897L3.4101 13.2447C3.3231 13.0314 3.3249 12.9336 3.3561 12.9135C3.35951 12.9114 3.36333 12.91 3.36732 12.9095C3.37131 12.909 3.37536 12.9093 3.3792 12.9105ZM18.231 12.9357C18.6186 12.9135 19.3086 13.2297 18.4185 13.2591H18.1188L18.0663 13.2345C17.9409 13.026 18.0546 12.9459 18.231 12.9357ZM2.544 14.0292C2.718 14.0655 3.2202 14.6232 2.643 14.4228C2.454 14.1039 2.4651 14.0124 2.544 14.0292ZM4.5228 14.8746C4.7391 14.8476 5.0304 15.429 4.3692 15.1587C4.3866 14.9604 4.4508 14.8836 4.5228 14.8746ZM5.5758 15.9681C5.6634 16.0023 5.7426 17.325 5.5083 16.6998L5.4966 16.4823C5.5164 16.0878 5.5467 15.9564 5.5758 15.9681ZM16.0986 16.8486C16.263 16.8666 16.7847 17.2056 16.2306 17.0958C16.023 16.8987 16.0239 16.8408 16.0986 16.8486ZM16.9044 17.0331C17.0535 17.0307 16.9983 17.4846 16.7685 17.1234C16.8249 17.0586 16.8699 17.0334 16.9044 17.0331ZM16.7706 17.4285C16.9995 17.3913 16.8192 17.8455 16.5435 17.5479C16.6437 17.472 16.7178 17.4369 16.7706 17.4285ZM16.3836 17.4864C16.4676 17.4954 16.4196 17.9037 16.2546 17.6499C16.3128 17.5248 16.3554 17.4834 16.3836 17.4864ZM25.1496 20.2803C25.2339 20.2893 25.1856 20.6973 25.0206 20.4438C25.0788 20.3184 25.1214 20.2773 25.1496 20.2803Z" fill="#7C48C3"/>
</g>
<defs>
<clipPath id="clip0_113_3964">
<rect width="30" height="30" fill="white"/>
</clipPath>
</defs>
</svg>
